# This file uses centimeters as units for non-parametric coordinates.

g default
v 0.740750 -0.500000 0.500000
v 1.740750 -0.500000 0.500000
v 0.740750 0.500000 0.500000
v 1.740750 0.500000 0.500000
v 0.740750 0.500000 -0.500000
v 1.740750 0.500000 -0.500000
v 0.740750 -0.500000 -0.500000
v 1.740750 -0.500000 -0.500000
v 2.740750 -0.500000 -0.500000
v 2.740750 -0.500000 0.500000
v 2.740750 0.500000 -0.500000
v 2.740750 0.500000 0.500000
v 3.740750 -0.500000 -0.500000
v 3.740750 -0.500000 0.500000
v 3.740750 0.500000 -0.500000
v 3.740750 0.500000 0.500000
v 0.740750 1.500000 0.500000
v 1.740750 1.500000 0.500000
v 1.740750 1.500000 -0.500000
v 0.740750 1.500000 -0.500000
v 0.740750 2.500000 0.500000
v 1.740750 2.500000 0.500000
v 1.740750 2.500000 -0.500000
v 0.740750 2.500000 -0.500000
v 0.740750 3.500000 0.500000
v 1.740750 3.500000 0.500000
v 1.740750 3.500000 -0.500000
v 0.740750 3.500000 -0.500000
v 0.740750 4.500000 0.500000
v 1.740750 4.500000 0.500000
v 1.740750 4.500000 -0.500000
v 0.740750 4.500000 -0.500000
v 2.740750 3.500000 0.500000
v 2.740750 3.500000 -0.500000
v 2.740750 4.500000 -0.500000
v 2.740750 4.500000 0.500000
v 3.740750 3.500000 0.500000
v 3.740750 3.500000 -0.500000
v 3.740750 4.500000 -0.500000
v 3.740750 4.500000 0.500000
v 2.740750 3.500000 0.500000
v 2.740750 3.500000 -0.500000
v 3.740750 3.500000 -0.500000
v 3.740750 3.500000 0.500000
v 2.740750 1.500000 0.500000
v 2.740750 1.500000 -0.500000
v 2.740750 2.500000 -0.500000
v 2.740750 2.500000 0.500000
v 3.740750 1.500000 0.500000
v 3.740750 1.500000 -0.500000
v 3.740750 2.500000 -0.500000
v 3.740750 2.500000 0.500000
v -4.951080 -0.500000 0.500000
v -3.951080 -0.500000 0.500000
v -4.951080 2.500000 0.500000
v -3.951080 1.500000 0.500000
v -4.951080 2.500000 -0.500000
v -3.951080 1.500000 -0.500000
v -4.951080 -0.500000 -0.500000
v -3.951080 -0.500000 -0.500000
v -3.951080 2.500000 0.500000
v -3.951080 2.500000 -0.500000
v -4.951080 4.500000 0.500000
v -3.951080 4.500000 0.500000
v -3.951080 4.500000 -0.500000
v -4.951080 4.500000 -0.500000
v -0.951080 1.500000 0.500000
v -0.951080 1.500000 -0.500000
v -1.951080 2.500000 0.500000
v -1.951080 2.500000 -0.500000
v -1.951080 1.500000 -0.500000
v -1.951080 1.500000 0.500000
v -1.951080 4.500000 0.500000
v -1.951080 4.500000 -0.500000
v -0.951080 4.500000 0.500000
v -0.951080 4.500000 -0.500000
v -1.951080 -0.500000 -0.500000
v -1.951080 -0.500000 0.500000
v -0.951080 -0.500000 -0.500000
v -0.951080 -0.500000 0.500000
vt 0.375000 0.000000
vt 0.625000 0.000000
vt 0.375000 0.250000
vt 0.625000 0.250000
vt 0.375000 0.500000
vt 0.625000 0.500000
vt 0.375000 0.750000
vt 0.625000 0.750000
vt 0.375000 1.000000
vt 0.625000 1.000000
vt 0.875000 0.000000
vt 0.875000 0.250000
vt 0.125000 0.000000
vt 0.125000 0.250000
vt 0.625000 0.000000
vt 0.875000 0.000000
vt 0.875000 0.250000
vt 0.625000 0.250000
vt 0.625000 0.000000
vt 0.875000 0.000000
vt 0.875000 0.250000
vt 0.625000 0.250000
vt 0.375000 0.250000
vt 0.625000 0.250000
vt 0.625000 0.500000
vt 0.375000 0.500000
vt 0.375000 0.250000
vt 0.625000 0.250000
vt 0.625000 0.500000
vt 0.375000 0.500000
vt 0.375000 0.250000
vt 0.625000 0.250000
vt 0.625000 0.500000
vt 0.375000 0.500000
vt 0.375000 0.250000
vt 0.625000 0.250000
vt 0.625000 0.500000
vt 0.375000 0.500000
vt 0.625000 0.250000
vt 0.625000 0.500000
vt 0.625000 0.500000
vt 0.625000 0.250000
vt 0.625000 0.250000
vt 0.625000 0.500000
vt 0.625000 0.500000
vt 0.625000 0.250000
vt 0.625000 0.250000
vt 0.625000 0.500000
vt 0.625000 0.500000
vt 0.625000 0.250000
vt 0.625000 0.250000
vt 0.625000 0.500000
vt 0.625000 0.500000
vt 0.625000 0.250000
vt 0.625000 0.250000
vt 0.625000 0.500000
vt 0.625000 0.500000
vt 0.625000 0.250000
vt 0.625000 0.000000
vt 0.564508 0.299568
vt 0.375000 0.000000
vt 0.384788 0.313498
vt 0.375000 0.250000
vt 0.625000 0.250000
vt 0.375000 0.500000
vt 0.625000 0.500000
vt 0.367724 0.467487
vt 0.573093 0.478511
vt 0.375000 0.750000
vt 0.625000 0.750000
vt 0.375000 1.000000
vt 0.625000 1.000000
vt 0.875000 0.000000
vt 0.874987 0.499963
vt 0.125000 0.000000
vt 0.129544 0.548492
vt 0.582074 0.250004
vt 0.579840 0.499996
vt 0.625000 0.500000
vt 0.625000 0.250000
vt 0.625000 0.500000
vt 0.625000 0.250000
vt 0.625000 0.500000
vt 0.625000 0.500000
vt 0.625000 0.499997
vt 0.625000 0.250000
vt 0.625000 0.500000
vt 0.625000 0.250000
vt 0.625000 0.500000
vt 0.625000 0.250000
vt 0.625000 0.250000
vt 0.625000 0.250003
vn 0.000000 0.000000 1.000000
vn 0.000000 0.000000 1.000000
vn 0.000000 0.000000 1.000000
vn 0.000000 0.000000 1.000000
vn 0.000000 1.000000 0.000000
vn 0.000000 1.000000 0.000000
vn 0.000000 1.000000 0.000000
vn 0.000000 1.000000 0.000000
vn 0.000000 0.000000 -1.000000
vn 0.000000 0.000000 -1.000000
vn 0.000000 0.000000 -1.000000
vn 0.000000 0.000000 -1.000000
vn 0.000000 -1.000000 0.000000
vn 0.000000 -1.000000 0.000000
vn 0.000000 -1.000000 0.000000
vn 0.000000 -1.000000 0.000000
vn 1.000000 0.000000 0.000000
vn 1.000000 0.000000 0.000000
vn 1.000000 0.000000 0.000000
vn 1.000000 0.000000 0.000000
vn -1.000000 0.000000 0.000000
vn -1.000000 0.000000 0.000000
vn -1.000000 0.000000 0.000000
vn -1.000000 0.000000 0.000000
vn 0.000000 -1.000000 0.000000
vn 0.000000 -1.000000 0.000000
vn 0.000000 0.000000 -1.000000
vn 0.000000 0.000000 -1.000000
vn 0.000000 1.000000 0.000000
vn 0.000000 1.000000 0.000000
vn 0.000000 1.000000 0.000000
vn 0.000000 1.000000 0.000000
vn 0.000000 0.000000 1.000000
vn 0.000000 0.000000 1.000000
vn 0.000000 -1.000000 0.000000
vn 0.000000 -1.000000 0.000000
vn 0.000000 0.000000 -1.000000
vn 0.000000 0.000000 -1.000000
vn 0.000000 0.000000 1.000000
vn 0.000000 0.000000 1.000000
vn 0.000000 0.000000 1.000000
vn 0.000000 0.000000 1.000000
vn 1.000000 0.000000 0.000000
vn 1.000000 0.000000 0.000000
vn 1.000000 0.000000 0.000000
vn 1.000000 0.000000 0.000000
vn 0.000000 0.000000 -1.000000
vn 0.000000 0.000000 -1.000000
vn -1.000000 0.000000 0.000000
vn -1.000000 0.000000 0.000000
vn 0.000000 0.000000 1.000000
vn 0.000000 0.000000 1.000000
vn 1.000000 0.000000 0.000000
vn 1.000000 0.000000 0.000000
vn 1.000000 0.000000 0.000000
vn 1.000000 0.000000 0.000000
vn 0.000000 0.000000 -1.000000
vn 0.000000 0.000000 -1.000000
vn -1.000000 0.000000 0.000000
vn -1.000000 0.000000 0.000000
vn 0.000000 0.000000 1.000000
vn 0.000000 0.000000 1.000000
vn 1.000000 0.000000 0.000000
vn 1.000000 0.000000 0.000000
vn 1.000000 0.000000 0.000000
vn 1.000000 0.000000 0.000000
vn 0.000000 0.000000 -1.000000
vn 0.000000 0.000000 -1.000000
vn -1.000000 0.000000 0.000000
vn -1.000000 0.000000 0.000000
vn 0.000000 0.000000 1.000000
vn 0.000000 0.000000 1.000000
vn 1.000000 0.000000 0.000000
vn 1.000000 0.000000 0.000000
vn 1.000000 0.000000 0.000000
vn 1.000000 0.000000 0.000000
vn 0.000000 0.000000 -1.000000
vn 0.000000 0.000000 -1.000000
vn -1.000000 0.000000 0.000000
vn -1.000000 0.000000 0.000000
vn 0.000000 -1.000000 0.000000
vn 0.000000 -1.000000 0.000000
vn 0.000000 -1.000000 0.000000
vn 0.000000 -1.000000 0.000000
vn 0.000000 0.000000 -1.000000
vn 0.000000 0.000000 -1.000000
vn 0.000000 1.000000 0.000000
vn 0.000000 1.000000 0.000000
vn 0.000000 0.000000 1.000000
vn 0.000000 0.000000 1.000000
vn 0.000000 -1.000000 0.000000
vn 0.000000 -1.000000 0.000000
vn 0.000000 -1.000000 0.000000
vn 0.000000 -1.000000 0.000000
vn 0.000000 0.000000 -1.000000
vn 0.000000 0.000000 -1.000000
vn 0.000000 1.000000 0.000000
vn 0.000000 1.000000 0.000000
vn 0.000000 0.000000 1.000000
vn 0.000000 0.000000 1.000000
vn 0.000000 0.000000 0.000000
vn 0.000000 0.000000 0.000000
vn 0.000000 0.000000 0.000000
vn 0.000000 0.000000 0.000000
vn 0.000000 0.000000 0.000000
vn 0.000000 0.000000 0.000000
vn 0.000000 0.000000 0.000000
vn 0.000000 0.000000 0.000000
vn 0.000000 0.000000 0.000000
vn 0.000000 0.000000 0.000000
vn 0.000000 0.000000 0.000000
vn 0.000000 0.000000 0.000000
vn 0.000000 0.000000 0.000000
vn 0.000000 0.000000 0.000000
vn 0.000000 0.000000 0.000000
vn 0.000000 0.000000 0.000000
vn 0.000000 -1.000000 0.000000
vn 0.000000 -1.000000 0.000000
vn 0.000000 -1.000000 0.000000
vn 0.000000 -1.000000 0.000000
vn 0.000000 0.000000 -1.000000
vn 0.000000 0.000000 -1.000000
vn 0.000000 1.000000 0.000000
vn 0.000000 1.000000 0.000000
vn 0.000000 1.000000 0.000000
vn 0.000000 1.000000 0.000000
vn 0.000000 0.000000 1.000000
vn 0.000000 0.000000 1.000000
vn 0.000000 0.000000 -1.000000
vn 0.000000 0.000000 -1.000000
vn 0.000000 1.000000 0.000000
vn 0.000000 1.000000 0.000000
vn 0.000000 0.000000 1.000000
vn 0.000000 0.000000 1.000000
vn -1.000000 0.000000 0.000000
vn -1.000000 0.000000 0.000000
vn -1.000000 0.000000 0.000000
vn -1.000000 0.000000 0.000000
vn 0.000000 0.000000 1.000000
vn 0.000000 0.000000 1.000000
vn 0.000000 0.000000 1.000000
vn 0.000000 0.000000 1.000000
vn 1.000000 0.000000 0.000000
vn 1.000000 0.000000 0.000000
vn 1.000000 0.000000 0.000000
vn 1.000000 0.000000 0.000000
vn 0.000000 0.000000 -1.000000
vn 0.000000 0.000000 -1.000000
vn 0.000000 0.000000 -1.000000
vn 0.000000 0.000000 -1.000000
vn 0.000000 0.000000 1.000000
vn 0.000000 0.000000 1.000000
vn 0.000000 0.000000 1.000000
vn 0.000000 0.000000 1.000000
vn 0.000000 1.000000 0.000000
vn 0.000000 1.000000 0.000000
vn 0.000000 1.000000 0.000000
vn 0.000000 1.000000 0.000000
vn 0.000000 0.000000 -1.000000
vn 0.000000 0.000000 -1.000000
vn 0.000000 0.000000 -1.000000
vn 0.000000 0.000000 -1.000000
vn 0.000000 -1.000000 0.000000
vn 0.000000 -1.000000 0.000000
vn 0.000000 -1.000000 0.000000
vn 0.000000 -1.000000 0.000000
vn 1.000000 0.000000 0.000000
vn 1.000000 0.000000 0.000000
vn 0.707107 -0.707107 0.000000
vn 0.707107 -0.707107 0.000000
vn -1.000000 0.000000 0.000000
vn -1.000000 0.000000 0.000000
vn -1.000000 0.000000 0.000000
vn -1.000000 0.000000 0.000000
vn 0.000000 0.000000 1.000000
vn 0.000000 0.000000 -1.000000
vn 0.000000 0.000000 1.000000
vn 0.000000 0.000000 1.000000
vn 1.000000 0.000000 0.000000
vn 1.000000 0.000000 0.000000
vn 1.000000 0.000000 0.000000
vn 1.000000 0.000000 0.000000
vn 0.000000 0.000000 -1.000000
vn 0.000000 0.000000 -1.000000
vn -1.000000 0.000000 0.000000
vn -1.000000 0.000000 0.000000
vn 0.000000 1.000000 0.000000
vn 0.000000 1.000000 0.000000
vn 0.000000 1.000000 0.000000
vn 0.000000 1.000000 0.000000
vn 0.000000 0.000000 -1.000000
vn 0.000000 0.000000 -1.000000
vn 0.000000 0.000000 -1.000000
vn 0.000000 -1.000000 0.000000
vn 0.000000 -1.000000 0.000000
vn 0.000000 -1.000000 0.000000
vn 0.000000 -1.000000 0.000000
vn 0.000000 0.000000 1.000000
vn 0.000000 0.000000 1.000000
vn 0.000000 0.000000 1.000000
vn 0.000000 1.000000 0.000000
vn 0.000000 1.000000 0.000000
vn 0.000000 1.000000 0.000000
vn 0.000000 1.000000 0.000000
vn 0.000000 -1.000000 0.000000
vn 0.000000 -1.000000 0.000000
vn -1.000000 0.000000 0.000000
vn -1.000000 0.000000 0.000000
vn -1.000000 0.000000 0.000000
vn -1.000000 0.000000 0.000000
vn 0.000000 0.000000 1.000000
vn 0.000000 0.000000 1.000000
vn 1.000000 0.000000 0.000000
vn 1.000000 0.000000 0.000000
vn 1.000000 0.000000 0.000000
vn 1.000000 0.000000 0.000000
vn 0.000000 0.000000 -1.000000
vn 0.000000 0.000000 -1.000000
vn -1.000000 0.000000 0.000000
vn -1.000000 0.000000 0.000000
vn -1.000000 0.000000 0.000000
vn -1.000000 0.000000 0.000000
vn 0.000000 0.000000 -1.000000
vn 0.000000 0.000000 -1.000000
vn 1.000000 0.000000 0.000000
vn 1.000000 0.000000 0.000000
vn 0.000000 0.000000 1.000000
vn 0.000000 0.000000 1.000000
s 1
g pCube10
f 1/1/1 2/2/2 3/3/3
f 3/3/3 2/2/2 4/4/4
s 2
f 29/35/5 30/36/6 32/38/7
f 32/38/7 30/36/6 31/37/8
s 3
f 5/5/9 6/6/10 7/7/11
f 7/7/11 6/6/10 8/8/12
s 4
f 7/7/13 8/8/14 1/9/15
f 1/9/15 8/8/14 2/10/16
s 5
f 14/19/17 13/20/18 16/22/19
f 16/22/19 13/20/18 15/21/20
s 6
f 7/13/21 1/1/22 5/14/23
f 5/14/23 1/1/22 3/3/24
s 4
f 2/2/16 8/11/14 10/15/25
f 10/15/25 8/11/14 9/16/26
s 3
f 8/11/12 6/12/10 9/16/27
f 9/16/27 6/12/10 11/17/28
s 7
f 6/12/29 4/4/30 11/17/31
f 11/17/31 4/4/30 12/18/32
s 1
f 4/4/4 2/2/2 12/18/33
f 12/18/33 2/2/2 10/15/34
s 4
f 10/15/25 9/16/26 14/19/35
f 14/19/35 9/16/26 13/20/36
s 3
f 9/16/27 11/17/28 13/20/37
f 13/20/37 11/17/28 15/21/38
s 1
f 12/18/33 10/15/34 16/22/39
f 16/22/39 10/15/34 14/19/40
f 3/3/3 4/4/4 17/23/41
f 17/23/41 4/4/4 18/24/42
s 8
f 4/4/43 6/6/44 18/24/45
f 18/24/45 6/6/44 19/25/46
s 3
f 6/6/10 5/5/9 19/25/47
f 19/25/47 5/5/9 20/26/48
s 6
f 5/5/23 3/3/24 20/26/49
f 20/26/49 3/3/24 17/23/50
s 1
f 17/23/41 18/24/42 21/27/51
f 21/27/51 18/24/42 22/28/52
s 9
f 49/55/53 50/56/54 52/58/55
f 52/58/55 50/56/54 51/57/56
s 3
f 19/25/47 20/26/48 23/29/57
f 23/29/57 20/26/48 24/30/58
s 6
f 20/26/49 17/23/50 24/30/59
f 24/30/59 17/23/50 21/27/60
s 1
f 21/27/51 22/28/52 25/31/61
f 25/31/61 22/28/52 26/32/62
s 10
f 22/28/63 23/29/64 26/32/65
f 26/32/65 23/29/64 27/33/66
s 3
f 23/29/57 24/30/58 27/33/67
f 27/33/67 24/30/58 28/34/68
s 6
f 24/30/59 21/27/60 28/34/69
f 28/34/69 21/27/60 25/31/70
s 1
f 25/31/61 26/32/62 29/35/71
f 29/35/71 26/32/62 30/36/72
s 11
f 37/43/73 38/44/74 40/46/75
f 40/46/75 38/44/74 39/45/76
s 3
f 27/33/67 28/34/68 31/37/77
f 31/37/77 28/34/68 32/38/78
s 6
f 28/34/69 25/31/70 32/38/79
f 32/38/79 25/31/70 29/35/80
s 12
f 26/32/81 27/33/82 33/39/83
f 33/39/83 27/33/82 34/40/84
s 3
f 27/33/67 31/37/77 34/40/85
f 34/40/85 31/37/77 35/41/86
s 2
f 31/37/8 30/36/6 35/41/87
f 35/41/87 30/36/6 36/42/88
s 1
f 30/36/72 26/32/62 36/42/89
f 36/42/89 26/32/62 33/39/90
s 13
f 41/47/91 42/48/92 44/50/93
f 44/50/93 42/48/92 43/49/94
s 3
f 34/40/85 35/41/86 38/44/95
f 38/44/95 35/41/86 39/45/96
s 2
f 35/41/87 36/42/88 39/45/97
f 39/45/97 36/42/88 40/46/98
s 1
f 36/42/89 33/39/90 40/46/99
f 40/46/99 33/39/90 37/43/100
s 14
f 41/47/101 33/39/102 42/48/103
f 33/39/102 34/40/104 42/48/103
s 15
f 42/48/105 34/40/106 43/49/107
f 34/40/106 38/44/108 43/49/107
s 16
f 43/49/109 38/44/110 44/50/111
f 38/44/110 37/43/112 44/50/111
s 17
f 44/50/113 37/43/114 41/47/115
f 37/43/114 33/39/116 41/47/115
s 18
f 18/24/117 19/25/118 45/51/119
f 45/51/119 19/25/118 46/52/120
s 3
f 19/25/47 23/29/57 46/52/121
f 46/52/121 23/29/57 47/53/122
s 19
f 23/29/123 22/28/124 47/53/125
f 47/53/125 22/28/124 48/54/126
s 1
f 22/28/52 18/24/42 48/54/127
f 48/54/127 18/24/42 45/51/128
s 3
f 46/52/121 47/53/122 50/56/129
f 50/56/129 47/53/122 51/57/130
s 19
f 47/53/125 48/54/126 51/57/131
f 51/57/131 48/54/126 52/58/132
s 1
f 48/54/127 45/51/128 52/58/133
f 52/58/133 45/51/128 49/55/134
s 20
f 11/17/135 12/18/136 46/52/137
f 46/52/137 12/18/136 45/51/138
s 21
f 12/18/139 16/22/140 45/51/141
f 45/51/141 16/22/140 49/55/142
s 22
f 16/22/143 15/21/144 49/55/145
f 49/55/145 15/21/144 50/56/146
s 23
f 15/21/147 11/17/148 50/56/149
f 50/56/149 11/17/148 46/52/150
s 24
f 54/59/151 56/60/152 53/61/153
f 53/61/153 56/60/152 55/62/154
s 25
f 63/63/155 64/64/156 66/65/157
f 66/65/157 64/64/156 65/66/158
s 26
f 57/67/159 58/68/160 59/69/161
f 59/69/161 58/68/160 60/70/162
s 27
f 59/69/163 60/70/164 53/71/165
f 53/71/165 60/70/164 54/72/166
s 28
f 54/59/167 60/73/168 56/60/169
f 56/60/169 60/73/168 58/74/170
s 29
f 59/75/171 53/61/172 57/76/173
f 57/76/173 53/61/172 55/62/174
s 24
f 55/62/154 56/60/152 61/77/175
s 26
f 58/68/160 57/67/159 62/78/176
s 24
f 55/62/154 61/77/175 63/63/177
f 63/63/177 61/77/175 64/64/178
s 30
f 61/77/179 62/78/180 64/64/181
f 64/64/181 62/78/180 65/66/182
s 26
f 62/78/176 57/67/159 65/66/183
f 65/66/183 57/67/159 66/65/184
s 29
f 57/67/173 55/62/174 66/65/185
f 66/65/185 55/62/174 63/63/186
s 31
f 74/79/187 73/80/188 76/81/189
f 76/81/189 73/80/188 75/82/190
s 26
f 71/83/191 70/84/192 68/85/193
s 33
f 78/86/194 77/87/195 80/88/196
f 80/88/196 77/87/195 79/89/197
s 24
f 69/90/198 72/91/199 67/92/200
s 35
f 62/78/201 61/77/202 70/84/203
f 70/84/203 61/77/202 69/90/204
s 26
f 58/68/160 62/78/176 71/83/191
f 71/83/191 62/78/176 70/84/192
s 28
f 56/60/169 58/68/170 72/91/205
f 72/91/205 58/68/170 71/83/206
s 24
f 61/77/175 56/60/152 69/90/198
f 69/90/198 56/60/152 72/91/199
s 36
f 70/84/207 69/90/208 74/79/209
f 74/79/209 69/90/208 73/80/210
s 24
f 67/92/200 75/82/211 69/90/198
f 69/90/198 75/82/211 73/80/212
s 37
f 67/92/213 68/85/214 75/82/215
f 75/82/215 68/85/214 76/81/216
s 26
f 68/85/193 70/84/192 76/81/217
f 76/81/217 70/84/192 74/79/218
s 38
f 72/91/219 71/83/220 78/86/221
f 78/86/221 71/83/220 77/87/222
s 26
f 71/83/191 68/85/193 77/87/223
f 77/87/223 68/85/193 79/89/224
s 37
f 68/85/214 67/92/213 79/89/225
f 79/89/225 67/92/213 80/88/226
s 24
f 67/92/200 72/91/199 80/88/227
f 80/88/227 72/91/199 78/86/228
