# This file uses centimeters as units for non-parametric coordinates.

g default
v 0.074075 -0.050000 0.050000
v 0.174075 -0.050000 0.050000
v 0.074075 0.050000 0.050000
v 0.174075 0.050000 0.050000
v 0.074075 0.050000 -0.050000
v 0.174075 0.050000 -0.050000
v 0.074075 -0.050000 -0.050000
v 0.174075 -0.050000 -0.050000
v 0.274075 -0.050000 -0.050000
v 0.274075 -0.050000 0.050000
v 0.274075 0.050000 -0.050000
v 0.274075 0.050000 0.050000
v 0.374075 -0.050000 -0.050000
v 0.374075 -0.050000 0.050000
v 0.374075 0.050000 -0.050000
v 0.374075 0.050000 0.050000
v 0.074075 0.150000 0.050000
v 0.174075 0.150000 0.050000
v 0.174075 0.150000 -0.050000
v 0.074075 0.150000 -0.050000
v 0.074075 0.250000 0.050000
v 0.174075 0.250000 0.050000
v 0.174075 0.250000 -0.050000
v 0.074075 0.250000 -0.050000
v 0.074075 0.350000 0.050000
v 0.174075 0.350000 0.050000
v 0.174075 0.350000 -0.050000
v 0.074075 0.350000 -0.050000
v 0.074075 0.450000 0.050000
v 0.174075 0.450000 0.050000
v 0.174075 0.450000 -0.050000
v 0.074075 0.450000 -0.050000
v 0.274075 0.350000 0.050000
v 0.274075 0.350000 -0.050000
v 0.274075 0.450000 -0.050000
v 0.274075 0.450000 0.050000
v 0.374075 0.350000 0.050000
v 0.374075 0.350000 -0.050000
v 0.374075 0.450000 -0.050000
v 0.374075 0.450000 0.050000
v 0.274075 0.350000 0.050000
v 0.274075 0.350000 -0.050000
v 0.374075 0.350000 -0.050000
v 0.374075 0.350000 0.050000
v 0.274075 0.150000 0.050000
v 0.274075 0.150000 -0.050000
v 0.274075 0.250000 -0.050000
v 0.274075 0.250000 0.050000
v 0.374075 0.150000 0.050000
v 0.374075 0.150000 -0.050000
v 0.374075 0.250000 -0.050000
v 0.374075 0.250000 0.050000
v -0.495108 -0.050000 0.050000
v -0.395108 -0.050000 0.050000
v -0.495108 0.250000 0.050000
v -0.395108 0.150000 0.050000
v -0.495108 0.250000 -0.050000
v -0.395108 0.150000 -0.050000
v -0.495108 -0.050000 -0.050000
v -0.395108 -0.050000 -0.050000
v -0.395108 0.250000 0.050000
v -0.395108 0.250000 -0.050000
v -0.495108 0.450000 0.050000
v -0.395108 0.450000 0.050000
v -0.395108 0.450000 -0.050000
v -0.495108 0.450000 -0.050000
v -0.095108 0.150000 0.050000
v -0.095108 0.150000 -0.050000
v -0.195108 0.250000 0.050000
v -0.195108 0.250000 -0.050000
v -0.195108 0.150000 -0.050000
v -0.195108 0.150000 0.050000
v -0.195108 0.450000 0.050000
v -0.195108 0.450000 -0.050000
v -0.095108 0.450000 0.050000
v -0.095108 0.450000 -0.050000
v -0.195108 -0.050000 -0.050000
v -0.195108 -0.050000 0.050000
v -0.095108 -0.050000 -0.050000
v -0.095108 -0.050000 0.050000
vt 0.375000 0.000000
vt 0.625000 0.000000
vt 0.375000 0.250000
vt 0.625000 0.250000
vt 0.375000 0.250000
vt 0.625000 0.250000
vt 0.375000 0.500000
vt 0.625000 0.500000
vt 0.375000 0.500000
vt 0.625000 0.500000
vt 0.375000 0.750000
vt 0.625000 0.750000
vt 0.375000 1.000000
vt 0.625000 1.000000
vt 0.625000 0.000000
vt 0.875000 0.000000
vt 0.625000 0.250000
vt 0.875000 0.250000
vt 0.125000 0.000000
vt 0.125000 0.250000
vt 0.875000 0.000000
vt 0.625000 0.000000
vt 0.875000 0.000000
vt 0.875000 0.250000
vt 0.875000 0.250000
vt 0.625000 0.250000
vt 0.375000 0.250000
vt 0.625000 0.250000
vt 0.625000 0.500000
vt 0.375000 0.500000
vt 0.375000 0.250000
vt 0.625000 0.250000
vt 0.625000 0.250000
vt 0.625000 0.500000
vt 0.625000 0.250000
vt 0.625000 0.500000
vt 0.625000 0.500000
vt 0.375000 0.500000
vt 0.375000 0.250000
vt 0.625000 0.250000
vt 0.625000 0.500000
vt 0.375000 0.500000
vt 0.625000 0.250000
vt 0.625000 0.500000
vt 0.625000 0.250000
vt 0.625000 0.500000
vt 0.625000 0.250000
vt 0.625000 0.500000
vt 0.625000 0.500000
vt 0.625000 0.250000
vt 0.625000 0.250000
vt 0.625000 0.500000
vt 0.625000 0.250000
vt 0.625000 0.500000
vt 0.625000 0.250000
vt 0.625000 0.500000
vt 0.625000 0.500000
vt 0.625000 0.250000
vt 0.625000 0.000000
vt 0.564508 0.299568
vt 0.375000 0.000000
vt 0.384788 0.313498
vt 0.375000 0.250000
vt 0.625000 0.250000
vt 0.375000 0.500000
vt 0.625000 0.500000
vt 0.367724 0.467487
vt 0.573093 0.478511
vt 0.375000 0.750000
vt 0.625000 0.750000
vt 0.375000 1.000000
vt 0.625000 1.000000
vt 0.875000 0.000000
vt 0.874987 0.499963
vt 0.125000 0.000000
vt 0.129544 0.548492
vt 0.582074 0.250004
vt 0.579840 0.499996
vt 0.625000 0.500000
vt 0.625000 0.250000
vt 0.625000 0.500000
vt 0.625000 0.250000
vt 0.625000 0.500000
vt 0.625000 0.500000
vt 0.625000 0.499997
vt 0.625000 0.250000
vt 0.625000 0.500000
vt 0.625000 0.250000
vt 0.625000 0.500000
vt 0.625000 0.250000
vt 0.625000 0.250000
vt 0.625000 0.250003
vn 0.000000 0.000000 1.000000
vn 0.000000 0.000000 1.000000
vn 0.000000 0.000000 1.000000
vn 0.000000 0.000000 1.000000
vn 0.000000 0.000000 1.000000
vn 0.000000 0.000000 1.000000
vn 0.000000 1.000000 0.000000
vn 0.000000 1.000000 0.000000
vn 0.000000 1.000000 0.000000
vn 0.000000 1.000000 0.000000
vn 0.000000 1.000000 0.000000
vn 0.000000 1.000000 0.000000
vn 0.000000 0.000000 -1.000000
vn 0.000000 0.000000 -1.000000
vn 0.000000 0.000000 -1.000000
vn 0.000000 0.000000 -1.000000
vn 0.000000 0.000000 -1.000000
vn 0.000000 0.000000 -1.000000
vn 0.000000 -1.000000 0.000000
vn 0.000000 -1.000000 0.000000
vn 0.000000 -1.000000 0.000000
vn 0.000000 -1.000000 0.000000
vn 0.000000 -1.000000 0.000000
vn 0.000000 -1.000000 0.000000
vn 1.000000 0.000000 0.000000
vn 1.000000 0.000000 0.000000
vn 1.000000 0.000000 0.000000
vn 1.000000 0.000000 0.000000
vn 1.000000 0.000000 0.000000
vn 1.000000 0.000000 0.000000
vn -1.000000 0.000000 0.000000
vn -1.000000 0.000000 0.000000
vn -1.000000 0.000000 0.000000
vn -1.000000 0.000000 0.000000
vn -1.000000 0.000000 0.000000
vn -1.000000 0.000000 0.000000
vn 0.000000 -1.000000 0.000000
vn 0.000000 -1.000000 0.000000
vn 0.000000 -1.000000 0.000000
vn 0.000000 -1.000000 0.000000
vn 0.000000 -1.000000 0.000000
vn 0.000000 -1.000000 0.000000
vn 0.000000 0.000000 -1.000000
vn 0.000000 0.000000 -1.000000
vn 0.000000 0.000000 -1.000000
vn 0.000000 0.000000 -1.000000
vn 0.000000 0.000000 -1.000000
vn 0.000000 0.000000 -1.000000
vn 0.000000 1.000000 0.000000
vn 0.000000 1.000000 0.000000
vn 0.000000 1.000000 0.000000
vn 0.000000 1.000000 0.000000
vn 0.000000 1.000000 0.000000
vn 0.000000 1.000000 0.000000
vn 0.000000 0.000000 1.000000
vn 0.000000 0.000000 1.000000
vn 0.000000 0.000000 1.000000
vn 0.000000 0.000000 1.000000
vn 0.000000 0.000000 1.000000
vn 0.000000 0.000000 1.000000
vn 0.000000 -1.000000 0.000000
vn 0.000000 -1.000000 0.000000
vn 0.000000 -1.000000 0.000000
vn 0.000000 -1.000000 0.000000
vn 0.000000 -1.000000 0.000000
vn 0.000000 -1.000000 0.000000
vn 0.000000 0.000000 -1.000000
vn 0.000000 0.000000 -1.000000
vn 0.000000 0.000000 -1.000000
vn 0.000000 0.000000 -1.000000
vn 0.000000 0.000000 -1.000000
vn 0.000000 0.000000 -1.000000
vn 0.000000 0.000000 1.000000
vn 0.000000 0.000000 1.000000
vn 0.000000 0.000000 1.000000
vn 0.000000 0.000000 1.000000
vn 0.000000 0.000000 1.000000
vn 0.000000 0.000000 1.000000
vn 0.000000 0.000000 1.000000
vn 0.000000 0.000000 1.000000
vn 0.000000 0.000000 1.000000
vn 0.000000 0.000000 1.000000
vn 0.000000 0.000000 1.000000
vn 0.000000 0.000000 1.000000
vn 1.000000 0.000000 0.000000
vn 1.000000 0.000000 0.000000
vn 1.000000 0.000000 0.000000
vn 1.000000 0.000000 0.000000
vn 1.000000 0.000000 0.000000
vn 1.000000 0.000000 0.000000
vn 0.000000 0.000000 -1.000000
vn 0.000000 0.000000 -1.000000
vn 0.000000 0.000000 -1.000000
vn 0.000000 0.000000 -1.000000
vn 0.000000 0.000000 -1.000000
vn 0.000000 0.000000 -1.000000
vn -1.000000 0.000000 0.000000
vn -1.000000 0.000000 0.000000
vn -1.000000 0.000000 0.000000
vn -1.000000 0.000000 0.000000
vn -1.000000 0.000000 0.000000
vn -1.000000 0.000000 0.000000
vn 0.000000 0.000000 1.000000
vn 0.000000 0.000000 1.000000
vn 0.000000 0.000000 1.000000
vn 0.000000 0.000000 1.000000
vn 0.000000 0.000000 1.000000
vn 0.000000 0.000000 1.000000
vn 1.000000 0.000000 0.000000
vn 1.000000 0.000000 0.000000
vn 1.000000 0.000000 0.000000
vn 1.000000 0.000000 0.000000
vn 1.000000 0.000000 0.000000
vn 1.000000 0.000000 0.000000
vn 0.000000 0.000000 -1.000000
vn 0.000000 0.000000 -1.000000
vn 0.000000 0.000000 -1.000000
vn 0.000000 0.000000 -1.000000
vn 0.000000 0.000000 -1.000000
vn 0.000000 0.000000 -1.000000
vn -1.000000 0.000000 0.000000
vn -1.000000 0.000000 0.000000
vn -1.000000 0.000000 0.000000
vn -1.000000 0.000000 0.000000
vn -1.000000 0.000000 0.000000
vn -1.000000 0.000000 0.000000
vn 0.000000 0.000000 1.000000
vn 0.000000 0.000000 1.000000
vn 0.000000 0.000000 1.000000
vn 0.000000 0.000000 1.000000
vn 0.000000 0.000000 1.000000
vn 0.000000 0.000000 1.000000
vn 1.000000 0.000000 0.000000
vn 1.000000 0.000000 0.000000
vn 1.000000 0.000000 0.000000
vn 1.000000 0.000000 0.000000
vn 1.000000 0.000000 0.000000
vn 1.000000 0.000000 0.000000
vn 0.000000 0.000000 -1.000000
vn 0.000000 0.000000 -1.000000
vn 0.000000 0.000000 -1.000000
vn 0.000000 0.000000 -1.000000
vn 0.000000 0.000000 -1.000000
vn 0.000000 0.000000 -1.000000
vn -1.000000 0.000000 0.000000
vn -1.000000 0.000000 0.000000
vn -1.000000 0.000000 0.000000
vn -1.000000 0.000000 0.000000
vn -1.000000 0.000000 0.000000
vn -1.000000 0.000000 0.000000
vn 0.000000 0.000000 1.000000
vn 0.000000 0.000000 1.000000
vn 0.000000 0.000000 1.000000
vn 0.000000 0.000000 1.000000
vn 0.000000 0.000000 1.000000
vn 0.000000 0.000000 1.000000
vn 1.000000 0.000000 0.000000
vn 1.000000 0.000000 0.000000
vn 1.000000 0.000000 0.000000
vn 1.000000 0.000000 0.000000
vn 1.000000 0.000000 0.000000
vn 1.000000 0.000000 0.000000
vn 0.000000 0.000000 -1.000000
vn 0.000000 0.000000 -1.000000
vn 0.000000 0.000000 -1.000000
vn 0.000000 0.000000 -1.000000
vn 0.000000 0.000000 -1.000000
vn 0.000000 0.000000 -1.000000
vn -1.000000 0.000000 0.000000
vn -1.000000 0.000000 0.000000
vn -1.000000 0.000000 0.000000
vn -1.000000 0.000000 0.000000
vn -1.000000 0.000000 0.000000
vn -1.000000 0.000000 0.000000
vn 0.000000 -1.000000 0.000000
vn 0.000000 -1.000000 0.000000
vn 0.000000 -1.000000 0.000000
vn 0.000000 -1.000000 0.000000
vn 0.000000 -1.000000 0.000000
vn 0.000000 -1.000000 0.000000
vn 0.000000 0.000000 -1.000000
vn 0.000000 0.000000 -1.000000
vn 0.000000 0.000000 -1.000000
vn 0.000000 0.000000 -1.000000
vn 0.000000 0.000000 -1.000000
vn 0.000000 0.000000 -1.000000
vn 0.000000 1.000000 0.000000
vn 0.000000 1.000000 0.000000
vn 0.000000 1.000000 0.000000
vn 0.000000 1.000000 0.000000
vn 0.000000 1.000000 0.000000
vn 0.000000 1.000000 0.000000
vn 0.000000 0.000000 1.000000
vn 0.000000 0.000000 1.000000
vn 0.000000 0.000000 1.000000
vn 0.000000 0.000000 1.000000
vn 0.000000 0.000000 1.000000
vn 0.000000 0.000000 1.000000
vn 0.000000 -1.000000 0.000000
vn 0.000000 -1.000000 0.000000
vn 0.000000 -1.000000 0.000000
vn 0.000000 -1.000000 0.000000
vn 0.000000 -1.000000 0.000000
vn 0.000000 -1.000000 0.000000
vn 0.000000 0.000000 -1.000000
vn 0.000000 0.000000 -1.000000
vn 0.000000 0.000000 -1.000000
vn 0.000000 0.000000 -1.000000
vn 0.000000 0.000000 -1.000000
vn 0.000000 0.000000 -1.000000
vn 0.000000 1.000000 0.000000
vn 0.000000 1.000000 0.000000
vn 0.000000 1.000000 0.000000
vn 0.000000 1.000000 0.000000
vn 0.000000 1.000000 0.000000
vn 0.000000 1.000000 0.000000
vn 0.000000 0.000000 1.000000
vn 0.000000 0.000000 1.000000
vn 0.000000 0.000000 1.000000
vn 0.000000 0.000000 1.000000
vn 0.000000 0.000000 1.000000
vn 0.000000 0.000000 1.000000
vn 0.000000 0.000000 0.000000
vn 0.000000 0.000000 0.000000
vn 0.000000 0.000000 0.000000
vn 0.000000 0.000000 0.000000
vn 0.000000 0.000000 0.000000
vn 0.000000 0.000000 0.000000
vn 0.000000 0.000000 0.000000
vn 0.000000 0.000000 0.000000
vn 0.000000 0.000000 0.000000
vn 0.000000 0.000000 0.000000
vn 0.000000 0.000000 0.000000
vn 0.000000 0.000000 0.000000
vn 0.000000 0.000000 0.000000
vn 0.000000 0.000000 0.000000
vn 0.000000 0.000000 0.000000
vn 0.000000 0.000000 0.000000
vn 0.000000 0.000000 0.000000
vn 0.000000 0.000000 0.000000
vn 0.000000 0.000000 0.000000
vn 0.000000 0.000000 0.000000
vn 0.000000 0.000000 0.000000
vn 0.000000 0.000000 0.000000
vn 0.000000 0.000000 0.000000
vn 0.000000 0.000000 0.000000
vn 0.000000 -1.000000 0.000000
vn 0.000000 -1.000000 0.000000
vn 0.000000 -1.000000 0.000000
vn 0.000000 -1.000000 0.000000
vn 0.000000 -1.000000 0.000000
vn 0.000000 -1.000000 0.000000
vn 0.000000 0.000000 -1.000000
vn 0.000000 0.000000 -1.000000
vn 0.000000 0.000000 -1.000000
vn 0.000000 0.000000 -1.000000
vn 0.000000 0.000000 -1.000000
vn 0.000000 0.000000 -1.000000
vn 0.000000 1.000000 0.000000
vn 0.000000 1.000000 0.000000
vn 0.000000 1.000000 0.000000
vn 0.000000 1.000000 0.000000
vn 0.000000 1.000000 0.000000
vn 0.000000 1.000000 0.000000
vn 0.000000 0.000000 1.000000
vn 0.000000 0.000000 1.000000
vn 0.000000 0.000000 1.000000
vn 0.000000 0.000000 1.000000
vn 0.000000 0.000000 1.000000
vn 0.000000 0.000000 1.000000
vn 0.000000 0.000000 -1.000000
vn 0.000000 0.000000 -1.000000
vn 0.000000 0.000000 -1.000000
vn 0.000000 0.000000 -1.000000
vn 0.000000 0.000000 -1.000000
vn 0.000000 0.000000 -1.000000
vn 0.000000 1.000000 0.000000
vn 0.000000 1.000000 0.000000
vn 0.000000 1.000000 0.000000
vn 0.000000 1.000000 0.000000
vn 0.000000 1.000000 0.000000
vn 0.000000 1.000000 0.000000
vn 0.000000 0.000000 1.000000
vn 0.000000 0.000000 1.000000
vn 0.000000 0.000000 1.000000
vn 0.000000 0.000000 1.000000
vn 0.000000 0.000000 1.000000
vn 0.000000 0.000000 1.000000
vn -1.000000 0.000000 0.000000
vn -1.000000 0.000000 0.000000
vn -1.000000 0.000000 0.000000
vn -1.000000 0.000000 0.000000
vn -1.000000 0.000000 0.000000
vn -1.000000 0.000000 0.000000
vn 0.000000 0.000000 1.000000
vn 0.000000 0.000000 1.000000
vn 0.000000 0.000000 1.000000
vn 0.000000 0.000000 1.000000
vn 0.000000 0.000000 1.000000
vn 0.000000 0.000000 1.000000
vn 1.000000 0.000000 0.000000
vn 1.000000 0.000000 0.000000
vn 1.000000 0.000000 0.000000
vn 1.000000 0.000000 0.000000
vn 1.000000 0.000000 0.000000
vn 1.000000 0.000000 0.000000
vn 0.000000 0.000000 -1.000000
vn 0.000000 0.000000 -1.000000
vn 0.000000 0.000000 -1.000000
vn 0.000000 0.000000 -1.000000
vn 0.000000 0.000000 -1.000000
vn 0.000000 0.000000 -1.000000
vn 0.000000 0.000000 1.000000
vn 0.000000 0.000000 1.000000
vn 0.000000 0.000000 1.000000
vn 0.000000 0.000000 1.000000
vn 0.000000 0.000000 1.000000
vn 0.000000 0.000000 1.000000
vn 0.000000 1.000000 0.000000
vn 0.000000 1.000000 0.000000
vn 0.000000 1.000000 0.000000
vn 0.000000 1.000000 0.000000
vn 0.000000 1.000000 0.000000
vn 0.000000 1.000000 0.000000
vn 0.000000 0.000000 -1.000000
vn 0.000000 0.000000 -1.000000
vn 0.000000 0.000000 -1.000000
vn 0.000000 0.000000 -1.000000
vn 0.000000 0.000000 -1.000000
vn 0.000000 0.000000 -1.000000
vn 0.000000 -1.000000 0.000000
vn 0.000000 -1.000000 0.000000
vn 0.000000 -1.000000 0.000000
vn 0.000000 -1.000000 0.000000
vn 0.000000 -1.000000 0.000000
vn 0.000000 -1.000000 0.000000
vn 1.000000 0.000000 0.000000
vn 1.000000 0.000000 0.000000
vn 0.707107 -0.707107 0.000000
vn 0.707107 -0.707107 0.000000
vn 1.000000 0.000000 0.000000
vn 0.707107 -0.707107 0.000000
vn -1.000000 0.000000 0.000000
vn -1.000000 0.000000 0.000000
vn -1.000000 0.000000 0.000000
vn -1.000000 0.000000 0.000000
vn -1.000000 0.000000 0.000000
vn -1.000000 0.000000 0.000000
vn 0.000000 0.000000 1.000000
vn 0.000000 0.000000 1.000000
vn 0.000000 0.000000 1.000000
vn 0.000000 0.000000 -1.000000
vn 0.000000 0.000000 -1.000000
vn 0.000000 0.000000 -1.000000
vn 0.000000 0.000000 1.000000
vn 0.000000 0.000000 1.000000
vn 0.000000 0.000000 1.000000
vn 0.000000 0.000000 1.000000
vn 0.000000 0.000000 1.000000
vn 0.000000 0.000000 1.000000
vn 1.000000 0.000000 0.000000
vn 1.000000 0.000000 0.000000
vn 1.000000 0.000000 0.000000
vn 1.000000 0.000000 0.000000
vn 1.000000 0.000000 0.000000
vn 1.000000 0.000000 0.000000
vn 0.000000 0.000000 -1.000000
vn 0.000000 0.000000 -1.000000
vn 0.000000 0.000000 -1.000000
vn 0.000000 0.000000 -1.000000
vn 0.000000 0.000000 -1.000000
vn 0.000000 0.000000 -1.000000
vn -1.000000 0.000000 0.000000
vn -1.000000 0.000000 0.000000
vn -1.000000 0.000000 0.000000
vn -1.000000 0.000000 0.000000
vn -1.000000 0.000000 0.000000
vn -1.000000 0.000000 0.000000
vn 0.000000 1.000000 0.000000
vn 0.000000 1.000000 0.000000
vn 0.000000 1.000000 0.000000
vn 0.000000 1.000000 0.000000
vn 0.000000 1.000000 0.000000
vn 0.000000 1.000000 0.000000
vn 0.000000 0.000000 -1.000000
vn 0.000000 0.000000 -1.000000
vn 0.000000 0.000000 -1.000000
vn 0.000000 -1.000000 0.000000
vn 0.000000 -1.000000 0.000000
vn 0.000000 -1.000000 0.000000
vn 0.000000 -1.000000 0.000000
vn 0.000000 -1.000000 0.000000
vn 0.000000 -1.000000 0.000000
vn 0.000000 0.000000 1.000000
vn 0.000000 0.000000 1.000000
vn 0.000000 0.000000 1.000000
vn 0.000000 1.000000 0.000000
vn 0.000000 1.000000 0.000000
vn 0.000000 1.000000 0.000000
vn 0.000000 1.000000 0.000000
vn 0.000000 1.000000 0.000000
vn 0.000000 1.000000 0.000000
vn 0.000000 0.000000 -1.000000
vn 0.000000 0.000000 -1.000000
vn 0.000000 0.000000 -1.000000
vn 0.000000 0.000000 -1.000000
vn 0.000000 0.000000 -1.000000
vn 0.000000 0.000000 -1.000000
vn 0.707107 -0.707107 0.000000
vn 0.707107 -0.707107 0.000000
vn 0.000000 -1.000000 0.000000
vn 0.000000 -1.000000 0.000000
vn 0.707107 -0.707107 0.000000
vn 0.000000 -1.000000 0.000000
vn 0.000000 0.000000 1.000000
vn 0.000000 0.000000 1.000000
vn 0.000000 0.000000 1.000000
vn 0.000000 0.000000 1.000000
vn 0.000000 0.000000 1.000000
vn 0.000000 0.000000 1.000000
vn -1.000000 0.000000 0.000000
vn -1.000000 0.000000 0.000000
vn -1.000000 0.000000 0.000000
vn -1.000000 0.000000 0.000000
vn -1.000000 0.000000 0.000000
vn -1.000000 0.000000 0.000000
vn 0.000000 0.000000 1.000000
vn 0.000000 0.000000 1.000000
vn 0.000000 0.000000 1.000000
vn 0.000000 0.000000 1.000000
vn 0.000000 0.000000 1.000000
vn 0.000000 0.000000 1.000000
vn 1.000000 0.000000 0.000000
vn 1.000000 0.000000 0.000000
vn 1.000000 0.000000 0.000000
vn 1.000000 0.000000 0.000000
vn 1.000000 0.000000 0.000000
vn 1.000000 0.000000 0.000000
vn 0.000000 0.000000 -1.000000
vn 0.000000 0.000000 -1.000000
vn 0.000000 0.000000 -1.000000
vn 0.000000 0.000000 -1.000000
vn 0.000000 0.000000 -1.000000
vn 0.000000 0.000000 -1.000000
vn -1.000000 0.000000 0.000000
vn -1.000000 0.000000 0.000000
vn -1.000000 0.000000 0.000000
vn -1.000000 0.000000 0.000000
vn -1.000000 0.000000 0.000000
vn -1.000000 0.000000 0.000000
vn 0.000000 0.000000 -1.000000
vn 0.000000 0.000000 -1.000000
vn 0.000000 0.000000 -1.000000
vn 0.000000 0.000000 -1.000000
vn 0.000000 0.000000 -1.000000
vn 0.000000 0.000000 -1.000000
vn 1.000000 0.000000 0.000000
vn 1.000000 0.000000 0.000000
vn 1.000000 0.000000 0.000000
vn 1.000000 0.000000 0.000000
vn 1.000000 0.000000 0.000000
vn 1.000000 0.000000 0.000000
vn 0.000000 0.000000 1.000000
vn 0.000000 0.000000 1.000000
vn 0.000000 0.000000 1.000000
vn 0.000000 0.000000 1.000000
vn 0.000000 0.000000 1.000000
vn 0.000000 0.000000 1.000000
s off
g H6:pCube10
f 1/1/1 2/2/2 3/3/3
f 3/3/4 2/2/5 4/4/6
f 29/5/7 30/6/8 32/7/9
f 32/7/10 30/6/11 31/8/12
f 5/9/13 6/10/14 7/11/15
f 7/11/16 6/10/17 8/12/18
f 7/11/19 8/12/20 1/13/21
f 1/13/22 8/12/23 2/14/24
f 14/15/25 13/16/26 16/17/27
f 16/17/28 13/16/29 15/18/30
f 7/19/31 1/1/32 5/20/33
f 5/20/34 1/1/35 3/3/36
f 2/2/37 8/21/38 10/22/39
f 10/22/40 8/21/41 9/23/42
f 8/21/43 6/24/44 9/23/45
f 9/23/46 6/24/47 11/25/48
f 6/24/49 4/4/50 11/25/51
f 11/25/52 4/4/53 12/26/54
f 4/4/55 2/2/56 12/26/57
f 12/26/58 2/2/59 10/22/60
f 10/22/61 9/23/62 14/15/63
f 14/15/64 9/23/65 13/16/66
f 9/23/67 11/25/68 13/16/69
f 13/16/70 11/25/71 15/18/72
f 12/26/73 10/22/74 16/17/75
f 16/17/76 10/22/77 14/15/78
f 3/3/79 4/4/80 17/27/81
f 17/27/82 4/4/83 18/28/84
f 4/4/85 6/10/86 18/28/87
f 18/28/88 6/10/89 19/29/90
f 6/10/91 5/9/92 19/29/93
f 19/29/94 5/9/95 20/30/96
f 5/9/97 3/3/98 20/30/99
f 20/30/100 3/3/101 17/27/102
f 17/27/103 18/28/104 21/31/105
f 21/31/106 18/28/107 22/32/108
f 49/33/109 50/34/110 52/35/111
f 52/35/112 50/34/113 51/36/114
f 19/29/115 20/30/116 23/37/117
f 23/37/118 20/30/119 24/38/120
f 20/30/121 17/27/122 24/38/123
f 24/38/124 17/27/125 21/31/126
f 21/31/127 22/32/128 25/39/129
f 25/39/130 22/32/131 26/40/132
f 22/32/133 23/37/134 26/40/135
f 26/40/136 23/37/137 27/41/138
f 23/37/139 24/38/140 27/41/141
f 27/41/142 24/38/143 28/42/144
f 24/38/145 21/31/146 28/42/147
f 28/42/148 21/31/149 25/39/150
f 25/39/151 26/40/152 29/5/153
f 29/5/154 26/40/155 30/6/156
f 37/43/157 38/44/158 40/45/159
f 40/45/160 38/44/161 39/46/162
f 27/41/163 28/42/164 31/8/165
f 31/8/166 28/42/167 32/7/168
f 28/42/169 25/39/170 32/7/171
f 32/7/172 25/39/173 29/5/174
f 26/40/175 27/41/176 33/47/177
f 33/47/178 27/41/179 34/48/180
f 27/41/181 31/8/182 34/48/183
f 34/48/184 31/8/185 35/49/186
f 31/8/187 30/6/188 35/49/189
f 35/49/190 30/6/191 36/50/192
f 30/6/193 26/40/194 36/50/195
f 36/50/196 26/40/197 33/47/198
f 41/51/199 42/52/200 44/53/201
f 44/53/202 42/52/203 43/54/204
f 34/48/205 35/49/206 38/44/207
f 38/44/208 35/49/209 39/46/210
f 35/49/211 36/50/212 39/46/213
f 39/46/214 36/50/215 40/45/216
f 36/50/217 33/47/218 40/45/219
f 40/45/220 33/47/221 37/43/222
f 41/51/223 33/47/224 42/52/225
f 33/47/226 34/48/227 42/52/228
f 42/52/229 34/48/230 43/54/231
f 34/48/232 38/44/233 43/54/234
f 43/54/235 38/44/236 44/53/237
f 38/44/238 37/43/239 44/53/240
f 44/53/241 37/43/242 41/51/243
f 37/43/244 33/47/245 41/51/246
f 18/28/247 19/29/248 45/55/249
f 45/55/250 19/29/251 46/56/252
f 19/29/253 23/37/254 46/56/255
f 46/56/256 23/37/257 47/57/258
f 23/37/259 22/32/260 47/57/261
f 47/57/262 22/32/263 48/58/264
f 22/32/265 18/28/266 48/58/267
f 48/58/268 18/28/269 45/55/270
f 46/56/271 47/57/272 50/34/273
f 50/34/274 47/57/275 51/36/276
f 47/57/277 48/58/278 51/36/279
f 51/36/280 48/58/281 52/35/282
f 48/58/283 45/55/284 52/35/285
f 52/35/286 45/55/287 49/33/288
f 11/25/289 12/26/290 46/56/291
f 46/56/292 12/26/293 45/55/294
f 12/26/295 16/17/296 45/55/297
f 45/55/298 16/17/299 49/33/300
f 16/17/301 15/18/302 49/33/303
f 49/33/304 15/18/305 50/34/306
f 15/18/307 11/25/308 50/34/309
f 50/34/310 11/25/311 46/56/312
f 54/59/313 56/60/314 53/61/315
f 53/61/316 56/60/317 55/62/318
f 63/63/319 64/64/320 66/65/321
f 66/65/322 64/64/323 65/66/324
f 57/67/325 58/68/326 59/69/327
f 59/69/328 58/68/329 60/70/330
f 59/69/331 60/70/332 53/71/333
f 53/71/334 60/70/335 54/72/336
f 54/59/337 60/73/338 56/60/339
f 56/60/340 60/73/341 58/74/342
f 59/75/343 53/61/344 57/76/345
f 57/76/346 53/61/347 55/62/348
f 55/62/349 56/60/350 61/77/351
f 58/68/352 57/67/353 62/78/354
f 55/62/355 61/77/356 63/63/357
f 63/63/358 61/77/359 64/64/360
f 61/77/361 62/78/362 64/64/363
f 64/64/364 62/78/365 65/66/366
f 62/78/367 57/67/368 65/66/369
f 65/66/370 57/67/371 66/65/372
f 57/67/373 55/62/374 66/65/375
f 66/65/376 55/62/377 63/63/378
f 74/79/379 73/80/380 76/81/381
f 76/81/382 73/80/383 75/82/384
f 71/83/385 70/84/386 68/85/387
f 78/86/388 77/87/389 80/88/390
f 80/88/391 77/87/392 79/89/393
f 69/90/394 72/91/395 67/92/396
f 62/78/397 61/77/398 70/84/399
f 70/84/400 61/77/401 69/90/402
f 58/68/403 62/78/404 71/83/405
f 71/83/406 62/78/407 70/84/408
f 56/60/409 58/68/410 72/91/411
f 72/91/412 58/68/413 71/83/414
f 61/77/415 56/60/416 69/90/417
f 69/90/418 56/60/419 72/91/420
f 70/84/421 69/90/422 74/79/423
f 74/79/424 69/90/425 73/80/426
f 67/92/427 75/82/428 69/90/429
f 69/90/430 75/82/431 73/80/432
f 67/92/433 68/85/434 75/82/435
f 75/82/436 68/85/437 76/81/438
f 68/85/439 70/84/440 76/81/441
f 76/81/442 70/84/443 74/79/444
f 72/91/445 71/83/446 78/86/447
f 78/86/448 71/83/449 77/87/450
f 71/83/451 68/85/452 77/87/453
f 77/87/454 68/85/455 79/89/456
f 68/85/457 67/92/458 79/89/459
f 79/89/460 67/92/461 80/88/462
f 67/92/463 72/91/464 80/88/465
f 80/88/466 72/91/467 78/86/468
