# This file uses centimeters as units for non-parametric coordinates.

g default
v -1.937980 0.494363 0.494363
v -1.937980 -0.494363 0.494363
v -2.926707 0.494363 0.494363
v -2.926707 -0.494363 0.494363
v -1.937980 0.494363 -0.494363
v -1.937980 -0.494363 -0.494363
v -2.926707 0.494363 -0.494363
v -2.926707 -0.494363 -0.494363
v -0.949253 0.494363 0.494363
v -0.949253 -0.494363 0.494363
v -0.949253 0.494363 -0.494363
v -0.949253 -0.494363 -0.494363
v -3.915434 0.494363 0.494363
v -3.915434 -0.494363 0.494363
v -3.915434 0.494363 -0.494363
v -3.915434 -0.494363 -0.494363
v -2.926707 0.988727 0.494363
v -2.926707 0.988727 -0.494363
v -3.915434 0.988727 0.494363
v -3.915434 0.988727 -0.494363
v -1.937980 4.495075 0.494363
v -1.937980 4.495075 -0.494363
v -0.949253 4.495075 0.494363
v -0.949253 4.495075 -0.494363
v 0.366415 -0.500000 0.500000
v 1.366415 -0.500000 0.500000
v 0.366415 4.500000 0.500000
v 1.366415 4.500000 0.500000
v 0.366415 4.500000 -0.500000
v 1.366415 4.500000 -0.500000
v 0.366415 -0.500000 -0.500000
v 1.366415 -0.500000 -0.500000
vt 0.625000 0.000000
vt 0.375000 0.250000
vt 0.375000 0.000000
vt 0.625000 0.750000
vt 0.375000 0.750000
vt 0.375000 0.750000
vt 0.625000 0.500000
vt 0.375000 0.500000
vt 0.625000 0.250000
vt 0.375000 0.250000
vt 0.375000 0.500000
vt 0.125000 0.750000
vt 0.125000 0.500000
vt 0.875000 0.500000
vt 0.625000 0.750000
vt 0.625000 0.500000
vt 0.625000 0.250000
vt 0.375000 0.500000
vt 0.375000 0.250000
vt 0.625000 0.000000
vt 0.875000 0.500000
vt 0.625000 0.750000
vt 0.375000 1.000000
vt 0.375000 0.750000
vt 0.875000 0.750000
vt 0.625000 0.750000
vt 0.625000 0.500000
vt 0.875000 0.750000
vt 0.875000 0.750000
vt 0.375000 0.750000
vt 0.125000 0.750000
vt 0.125000 0.750000
vt 0.625000 1.000000
vt 0.625000 1.000000
vt 0.625000 0.500000
vt 0.375000 0.750000
vt 0.625000 0.750000
vt 0.625000 0.250000
vt 0.625000 0.500000
vt 0.375000 0.000000
vt 0.625000 0.500000
vt 0.375000 0.500000
vt 0.875000 0.750000
vt 0.375000 0.750000
vt 0.625000 0.750000
vt 0.625000 0.500000
vt 0.875000 0.500000
vt 0.375000 0.500000
vt 0.625000 0.500000
vt 0.625000 0.750000
vt 0.875000 0.500000
vt 0.125000 0.500000
vt 0.625000 0.250000
vt 0.625000 0.750000
vt 0.375000 0.000000
vt 0.625000 0.000000
vt 0.375000 0.250000
vt 0.625000 0.250000
vt 0.375000 0.500000
vt 0.625000 0.500000
vt 0.375000 0.750000
vt 0.625000 0.750000
vt 0.375000 1.000000
vt 0.625000 1.000000
vt 0.875000 0.000000
vt 0.875000 0.250000
vt 0.125000 0.000000
vt 0.125000 0.250000
vn 0.000000 -1.000000 0.000000
vn 0.000000 -1.000000 0.000000
vn 0.000000 -1.000000 0.000000
vn -0.000000 0.000000 -1.000000
vn -0.000000 0.000000 -1.000000
vn -0.000000 0.000000 -1.000000
vn -0.000000 0.000000 -1.000000
vn -0.000000 0.000000 -1.000000
vn -0.000000 0.000000 -1.000000
vn 0.000000 -1.000000 0.000000
vn 0.000000 -1.000000 0.000000
vn 0.000000 -1.000000 0.000000
vn 0.000000 1.000000 0.000000
vn 0.000000 1.000000 0.000000
vn 0.000000 1.000000 0.000000
vn 0.000000 0.000000 1.000000
vn 0.000000 0.000000 1.000000
vn 0.000000 0.000000 1.000000
vn 1.000000 0.000000 -0.000000
vn 1.000000 0.000000 -0.000000
vn 1.000000 0.000000 -0.000000
vn 0.000000 -1.000000 0.000000
vn 0.000000 -1.000000 0.000000
vn 0.000000 -1.000000 0.000000
vn 0.000000 0.000000 1.000000
vn 0.000000 0.000000 1.000000
vn 0.000000 0.000000 1.000000
vn -1.000000 0.000000 0.000000
vn -1.000000 0.000000 0.000000
vn -1.000000 0.000000 0.000000
vn 0.000000 0.000000 1.000000
vn 0.000000 0.000000 1.000000
vn 0.000000 0.000000 1.000000
vn -0.000000 0.000000 -1.000000
vn -0.000000 0.000000 -1.000000
vn -0.000000 0.000000 -1.000000
vn 0.000000 0.000000 1.000000
vn 0.000000 0.000000 1.000000
vn 0.000000 0.000000 1.000000
vn 0.000000 1.000000 0.000000
vn 0.000000 1.000000 0.000000
vn 0.000000 1.000000 0.000000
vn -1.000000 0.000000 0.000000
vn -1.000000 0.000000 0.000000
vn -1.000000 0.000000 0.000000
vn -0.000000 0.000000 -1.000000
vn -0.000000 0.000000 -1.000000
vn -0.000000 0.000000 -1.000000
vn 1.000000 0.000000 -0.000000
vn 1.000000 0.000000 -0.000000
vn 1.000000 0.000000 -0.000000
vn 0.000000 -1.000000 0.000000
vn 0.000000 -1.000000 0.000000
vn 0.000000 -1.000000 0.000000
vn -0.000000 0.000000 -1.000000
vn -0.000000 0.000000 -1.000000
vn -0.000000 0.000000 -1.000000
vn -0.000000 0.000000 -1.000000
vn -0.000000 0.000000 -1.000000
vn -0.000000 0.000000 -1.000000
vn 0.000000 -1.000000 0.000000
vn 0.000000 -1.000000 0.000000
vn 0.000000 -1.000000 0.000000
vn 0.000000 1.000000 0.000000
vn 0.000000 1.000000 0.000000
vn 0.000000 1.000000 0.000000
vn 0.000000 0.000000 1.000000
vn 0.000000 0.000000 1.000000
vn 0.000000 0.000000 1.000000
vn 1.000000 0.000000 -0.000000
vn 1.000000 0.000000 -0.000000
vn 1.000000 0.000000 -0.000000
vn 0.000000 -1.000000 0.000000
vn 0.000000 -1.000000 0.000000
vn 0.000000 -1.000000 0.000000
vn 0.000000 0.000000 1.000000
vn 0.000000 0.000000 1.000000
vn 0.000000 0.000000 1.000000
vn -1.000000 0.000000 0.000000
vn -1.000000 0.000000 0.000000
vn -1.000000 0.000000 0.000000
vn 0.000000 0.000000 1.000000
vn 0.000000 0.000000 1.000000
vn 0.000000 0.000000 1.000000
vn -0.000000 0.000000 -1.000000
vn -0.000000 0.000000 -1.000000
vn -0.000000 0.000000 -1.000000
vn 0.000000 0.000000 1.000000
vn 0.000000 0.000000 1.000000
vn 0.000000 0.000000 1.000000
vn 0.000000 1.000000 0.000000
vn 0.000000 1.000000 0.000000
vn 0.000000 1.000000 0.000000
vn -1.000000 0.000000 0.000000
vn -1.000000 0.000000 0.000000
vn -1.000000 0.000000 0.000000
vn -0.000000 0.000000 -1.000000
vn -0.000000 0.000000 -1.000000
vn -0.000000 0.000000 -1.000000
vn 1.000000 0.000000 -0.000000
vn 1.000000 0.000000 -0.000000
vn 1.000000 0.000000 -0.000000
vn 0.000000 0.000000 1.000000
vn 0.000000 0.000000 1.000000
vn 0.000000 0.000000 1.000000
vn 0.000000 1.000000 0.000000
vn 0.000000 1.000000 0.000000
vn 0.000000 1.000000 0.000000
vn -1.000000 0.000000 0.000000
vn -1.000000 0.000000 0.000000
vn -1.000000 0.000000 0.000000
vn 1.000000 0.000000 -0.000000
vn 1.000000 0.000000 -0.000000
vn 1.000000 0.000000 -0.000000
vn -0.000000 0.000000 -1.000000
vn -0.000000 0.000000 -1.000000
vn -0.000000 0.000000 -1.000000
vn 0.000000 0.000000 1.000000
vn 0.000000 0.000000 1.000000
vn 0.000000 0.000000 1.000000
vn 0.000000 1.000000 0.000000
vn 0.000000 1.000000 0.000000
vn 0.000000 1.000000 0.000000
vn -1.000000 0.000000 0.000000
vn -1.000000 0.000000 0.000000
vn -1.000000 0.000000 0.000000
vn 1.000000 0.000000 -0.000000
vn 1.000000 0.000000 -0.000000
vn 1.000000 0.000000 -0.000000
vn -0.000000 0.000000 -1.000000
vn -0.000000 0.000000 -1.000000
vn -0.000000 0.000000 -1.000000
vn 0.000000 0.000000 1.000000
vn 0.000000 0.000000 1.000000
vn 0.000000 0.000000 1.000000
vn 0.000000 0.000000 1.000000
vn 0.000000 1.000000 0.000000
vn 0.000000 1.000000 0.000000
vn 0.000000 1.000000 0.000000
vn 0.000000 1.000000 0.000000
vn 0.000000 0.000000 -1.000000
vn 0.000000 0.000000 -1.000000
vn 0.000000 0.000000 -1.000000
vn 0.000000 0.000000 -1.000000
vn 0.000000 -1.000000 0.000000
vn 0.000000 -1.000000 0.000000
vn 0.000000 -1.000000 0.000000
vn 0.000000 -1.000000 0.000000
vn 1.000000 0.000000 0.000000
vn 1.000000 0.000000 0.000000
vn 1.000000 0.000000 0.000000
vn 1.000000 0.000000 0.000000
vn -1.000000 0.000000 0.000000
vn -1.000000 0.000000 0.000000
vn -1.000000 0.000000 0.000000
vn -1.000000 0.000000 0.000000
s off
g letterJ_tall:Mesh1
f 2/1/1 8/2/2 6/3/3
f 5/4/4 12/5/5 6/6/6
f 7/7/7 6/6/8 8/8/9
f 4/9/10 16/10/11 8/2/12
f 5/11/13 3/12/14 1/13/15
f 1/14/16 4/15/17 2/16/18
f 11/17/19 10/18/20 12/19/21
f 6/3/22 10/20/23 2/1/24
f 2/16/25 9/21/26 1/14/27
f 13/22/28 16/23/29 14/24/30
f 3/25/31 14/26/32 4/15/33
f 8/8/34 15/27/35 7/7/36
f 3/25/37 19/28/38 13/29/39
f 18/30/40 19/31/41 17/32/42
f 13/22/43 20/33/44 15/34/45
f 15/27/46 18/35/47 7/7/48
f 7/36/49 17/32/50 3/12/51
f 2/1/52 4/9/53 8/2/54
f 5/4/55 11/37/56 12/5/57
f 7/7/58 5/4/59 6/6/60
f 4/9/61 14/38/62 16/10/63
f 5/11/64 7/36/65 3/12/66
f 1/14/67 3/25/68 4/15/69
f 11/17/70 9/39/71 10/18/72
f 6/3/73 12/40/74 10/20/75
f 2/16/76 10/41/77 9/21/78
f 13/22/79 15/34/80 16/23/81
f 3/25/82 13/29/83 14/26/84
f 8/8/85 16/42/86 15/27/87
f 3/25/88 17/43/89 19/28/90
f 18/30/91 20/44/92 19/31/93
f 13/22/94 19/45/95 20/33/96
f 15/27/97 20/46/98 18/35/99
f 7/36/100 18/30/101 17/32/102
f 9/21/103 21/47/104 1/14/105
f 22/48/106 23/49/107 24/50/108
f 1/13/109 22/48/110 5/11/111
f 11/17/112 23/49/113 9/39/114
f 5/4/115 24/50/116 11/37/117
f 9/21/118 23/51/119 21/47/120
f 22/48/121 21/47/122 23/49/123
f 1/13/124 21/52/125 22/48/126
f 11/17/127 24/53/128 23/49/129
f 5/4/130 22/54/131 24/50/132
s 1
f 25/55/133 26/56/134 27/57/135
f 27/57/135 26/56/134 28/58/136
s 2
f 27/57/137 28/58/138 29/59/139
f 29/59/139 28/58/138 30/60/140
s 3
f 29/59/141 30/60/142 31/61/143
f 31/61/143 30/60/142 32/62/144
s 4
f 31/61/145 32/62/146 25/63/147
f 25/63/147 32/62/146 26/64/148
s 5
f 26/56/149 32/65/150 28/58/151
f 28/58/151 32/65/150 30/66/152
s 6
f 31/67/153 25/55/154 29/68/155
f 29/68/155 25/55/154 27/57/156
