# This file uses centimeters as units for non-parametric coordinates.

g default
v 3.519688 -0.500000 0.500000
v 3.519688 0.500000 0.500000
v 3.519688 0.500000 -0.500000
v 3.519688 -0.500000 -0.500000
v 2.519688 0.500000 0.500000
v 2.519688 0.500000 -0.500000
v 2.519688 -0.500000 -0.500000
v 2.519688 -0.500000 0.500000
v 2.519688 1.500000 0.500000
v 3.519688 1.500000 0.500000
v 3.519688 1.500000 -0.500000
v 2.519688 1.500000 -0.500000
v 2.519688 2.500000 0.500000
v 3.519688 2.500000 0.500000
v 3.519688 2.500000 -0.500000
v 2.519688 2.500000 -0.500000
v 1.519688 1.500000 0.500000
v 1.519688 1.500000 -0.500000
v 1.519688 2.500000 0.500000
v 1.519688 2.500000 -0.500000
v 0.519688 1.500000 0.500000
v 0.519688 1.500000 -0.500000
v 0.519688 2.500000 0.500000
v 0.519688 2.500000 -0.500000
v 1.519688 3.500000 0.500000
v 1.519688 3.500000 -0.500000
v 0.519688 3.500000 -0.500000
v 0.519688 3.500000 0.500000
v 1.519688 4.500000 0.500000
v 1.519688 4.500000 -0.500000
v 0.519688 4.500000 -0.500000
v 0.519688 4.500000 0.500000
v 3.519688 3.500000 0.500000
v 3.519688 3.500000 -0.500000
v 3.519688 4.500000 -0.500000
v 3.519688 4.500000 0.500000
v 0.519688 0.500000 -0.500000
v 0.519688 -0.500000 -0.500000
v 0.519688 -0.500000 0.500000
v 0.519688 0.500000 0.500000
v -1.937980 0.494363 0.494363
v -1.937980 -0.494363 0.494363
v -2.926707 0.494363 0.494363
v -2.926707 -0.494363 0.494363
v -1.937980 0.494363 -0.494363
v -1.937980 -0.494363 -0.494363
v -2.926707 0.494363 -0.494363
v -2.926707 -0.494363 -0.494363
v -0.949253 0.494363 0.494363
v -0.949253 -0.494363 0.494363
v -0.949253 0.494363 -0.494363
v -0.949253 -0.494363 -0.494363
v -3.915434 0.494363 0.494363
v -3.915434 -0.494363 0.494363
v -3.915434 0.494363 -0.494363
v -3.915434 -0.494363 -0.494363
v -2.926707 0.988727 0.494363
v -2.926707 0.988727 -0.494363
v -3.915434 0.988727 0.494363
v -3.915434 0.988727 -0.494363
v -1.937980 4.495075 0.494363
v -1.937980 4.495075 -0.494363
v -0.949253 4.495075 0.494363
v -0.949253 4.495075 -0.494363
vt 0.625000 0.000000
vt 0.875000 0.000000
vt 0.625000 0.250000
vt 0.875000 0.250000
vt 0.541667 0.250000
vt 0.625000 0.250000
vt 0.541667 0.500000
vt 0.625000 0.500000
vt 0.541667 0.750000
vt 0.541667 0.500000
vt 0.625000 0.750000
vt 0.625000 0.500000
vt 0.541667 1.000000
vt 0.625000 1.000000
vt 0.541667 0.250000
vt 0.541667 0.000000
vt 0.541667 0.250000
vt 0.625000 0.250000
vt 0.625000 0.500000
vt 0.541667 0.500000
vt 0.541667 0.500000
vt 0.541667 0.250000
vt 0.541667 0.500000
vt 0.541667 0.250000
vt 0.541667 0.500000
vt 0.541667 0.250000
vt 0.541667 0.250000
vt 0.541667 0.500000
vt 0.541667 0.250000
vt 0.541667 0.500000
vt 0.541667 0.250000
vt 0.541667 0.500000
vt 0.541667 0.250000
vt 0.541667 0.500000
vt 0.541667 0.500000
vt 0.541667 0.250000
vt 0.541667 0.250000
vt 0.541667 0.500000
vt 0.541667 0.250000
vt 0.541667 0.500000
vt 0.541667 0.500000
vt 0.541667 0.750000
vt 0.541667 0.250000
vt 0.541667 0.000000
vt 0.625000 0.000000
vt 0.375000 0.250000
vt 0.375000 0.000000
vt 0.625000 0.750000
vt 0.375000 0.750000
vt 0.375000 0.750000
vt 0.625000 0.500000
vt 0.375000 0.500000
vt 0.625000 0.250000
vt 0.375000 0.250000
vt 0.375000 0.500000
vt 0.125000 0.750000
vt 0.125000 0.500000
vt 0.875000 0.500000
vt 0.625000 0.750000
vt 0.625000 0.500000
vt 0.625000 0.250000
vt 0.375000 0.500000
vt 0.375000 0.250000
vt 0.625000 0.000000
vt 0.875000 0.500000
vt 0.625000 0.750000
vt 0.375000 1.000000
vt 0.375000 0.750000
vt 0.875000 0.750000
vt 0.625000 0.750000
vt 0.625000 0.500000
vt 0.875000 0.750000
vt 0.875000 0.750000
vt 0.375000 0.750000
vt 0.125000 0.750000
vt 0.125000 0.750000
vt 0.625000 1.000000
vt 0.625000 1.000000
vt 0.625000 0.500000
vt 0.375000 0.750000
vt 0.625000 0.750000
vt 0.625000 0.250000
vt 0.625000 0.500000
vt 0.375000 0.000000
vt 0.625000 0.500000
vt 0.375000 0.500000
vt 0.875000 0.750000
vt 0.375000 0.750000
vt 0.625000 0.750000
vt 0.625000 0.500000
vt 0.875000 0.500000
vt 0.375000 0.500000
vt 0.625000 0.500000
vt 0.625000 0.750000
vt 0.875000 0.500000
vt 0.125000 0.500000
vt 0.625000 0.250000
vt 0.625000 0.750000
vn 1.000000 0.000000 0.000000
vn 1.000000 0.000000 0.000000
vn 1.000000 0.000000 0.000000
vn 1.000000 0.000000 0.000000
vn 1.000000 0.000000 0.000000
vn 1.000000 0.000000 0.000000
vn 0.000000 1.000000 0.000000
vn 0.000000 1.000000 0.000000
vn 0.000000 1.000000 0.000000
vn 0.000000 1.000000 0.000000
vn 0.000000 1.000000 0.000000
vn 0.000000 1.000000 0.000000
vn 0.000000 0.000000 -1.000000
vn 0.000000 0.000000 -1.000000
vn 0.000000 0.000000 -1.000000
vn 0.000000 0.000000 -1.000000
vn 0.000000 0.000000 -1.000000
vn 0.000000 0.000000 -1.000000
vn 0.000000 -1.000000 0.000000
vn 0.000000 -1.000000 0.000000
vn 0.000000 -1.000000 0.000000
vn 0.000000 -1.000000 0.000000
vn 0.000000 -1.000000 0.000000
vn 0.000000 -1.000000 0.000000
vn 0.000000 0.000000 1.000000
vn 0.000000 0.000000 1.000000
vn 0.000000 0.000000 1.000000
vn 0.000000 0.000000 1.000000
vn 0.000000 0.000000 1.000000
vn 0.000000 0.000000 1.000000
vn 0.000000 0.000000 1.000000
vn 0.000000 0.000000 1.000000
vn 0.000000 0.000000 1.000000
vn 0.000000 0.000000 1.000000
vn 0.000000 0.000000 1.000000
vn 0.000000 0.000000 1.000000
vn 1.000000 0.000000 0.000000
vn 1.000000 0.000000 0.000000
vn 1.000000 0.000000 0.000000
vn 1.000000 0.000000 0.000000
vn 1.000000 0.000000 0.000000
vn 1.000000 0.000000 0.000000
vn 0.000000 0.000000 -1.000000
vn 0.000000 0.000000 -1.000000
vn 0.000000 0.000000 -1.000000
vn 0.000000 0.000000 -1.000000
vn 0.000000 0.000000 -1.000000
vn 0.000000 0.000000 -1.000000
vn -1.000000 0.000000 0.000000
vn -1.000000 0.000000 0.000000
vn -1.000000 0.000000 0.000000
vn -1.000000 0.000000 0.000000
vn -1.000000 0.000000 0.000000
vn -1.000000 0.000000 0.000000
vn 0.000000 0.000000 1.000000
vn 0.000000 0.000000 1.000000
vn 0.000000 0.000000 1.000000
vn 0.000000 0.000000 1.000000
vn 0.000000 0.000000 1.000000
vn 0.000000 0.000000 1.000000
vn 1.000000 0.000000 0.000000
vn 1.000000 0.000000 0.000000
vn 1.000000 0.000000 0.000000
vn 1.000000 0.000000 0.000000
vn 1.000000 0.000000 0.000000
vn 1.000000 0.000000 0.000000
vn 0.000000 0.000000 -1.000000
vn 0.000000 0.000000 -1.000000
vn 0.000000 0.000000 -1.000000
vn 0.000000 0.000000 -1.000000
vn 0.000000 0.000000 -1.000000
vn 0.000000 0.000000 -1.000000
vn -1.000000 0.000000 0.000000
vn -1.000000 0.000000 0.000000
vn -1.000000 0.000000 0.000000
vn -1.000000 0.000000 0.000000
vn -1.000000 0.000000 0.000000
vn -1.000000 0.000000 0.000000
vn 0.000000 -1.000000 0.000000
vn 0.000000 -1.000000 0.000000
vn 0.000000 -1.000000 0.000000
vn 0.000000 -1.000000 0.000000
vn 0.000000 -1.000000 0.000000
vn 0.000000 -1.000000 0.000000
vn 0.000000 0.000000 1.000000
vn 0.000000 0.000000 1.000000
vn 0.000000 0.000000 1.000000
vn 0.000000 0.000000 1.000000
vn 0.000000 0.000000 1.000000
vn 0.000000 0.000000 1.000000
vn 0.000000 1.000000 0.000000
vn 0.000000 1.000000 0.000000
vn 0.000000 1.000000 0.000000
vn 0.000000 1.000000 0.000000
vn 0.000000 1.000000 0.000000
vn 0.000000 1.000000 0.000000
vn 0.000000 0.000000 -1.000000
vn 0.000000 0.000000 -1.000000
vn 0.000000 0.000000 -1.000000
vn 0.000000 0.000000 -1.000000
vn 0.000000 0.000000 -1.000000
vn 0.000000 0.000000 -1.000000
vn 0.000000 -1.000000 0.000000
vn 0.000000 -1.000000 0.000000
vn 0.000000 -1.000000 0.000000
vn 0.000000 -1.000000 0.000000
vn 0.000000 -1.000000 0.000000
vn 0.000000 -1.000000 0.000000
vn 0.000000 0.000000 1.000000
vn 0.000000 0.000000 1.000000
vn 0.000000 0.000000 1.000000
vn 0.000000 0.000000 1.000000
vn 0.000000 0.000000 1.000000
vn 0.000000 0.000000 1.000000
vn 0.000000 1.000000 0.000000
vn 0.000000 1.000000 0.000000
vn 0.000000 1.000000 0.000000
vn 0.000000 1.000000 0.000000
vn 0.000000 1.000000 0.000000
vn 0.000000 1.000000 0.000000
vn 0.000000 0.000000 -1.000000
vn 0.000000 0.000000 -1.000000
vn 0.000000 0.000000 -1.000000
vn 0.000000 0.000000 -1.000000
vn 0.000000 0.000000 -1.000000
vn 0.000000 0.000000 -1.000000
vn 1.000000 0.000000 0.000000
vn 1.000000 0.000000 0.000000
vn 1.000000 0.000000 0.000000
vn 1.000000 0.000000 0.000000
vn 1.000000 0.000000 0.000000
vn 1.000000 0.000000 0.000000
vn 0.000000 0.000000 -1.000000
vn 0.000000 0.000000 -1.000000
vn 0.000000 0.000000 -1.000000
vn 0.000000 0.000000 -1.000000
vn 0.000000 0.000000 -1.000000
vn 0.000000 0.000000 -1.000000
vn -1.000000 0.000000 0.000000
vn -1.000000 0.000000 0.000000
vn -1.000000 0.000000 0.000000
vn -1.000000 0.000000 0.000000
vn -1.000000 0.000000 0.000000
vn -1.000000 0.000000 0.000000
vn 0.000000 0.000000 1.000000
vn 0.000000 0.000000 1.000000
vn 0.000000 0.000000 1.000000
vn 0.000000 0.000000 1.000000
vn 0.000000 0.000000 1.000000
vn 0.000000 0.000000 1.000000
vn 1.000000 0.000000 0.000000
vn 1.000000 0.000000 0.000000
vn 1.000000 0.000000 0.000000
vn 1.000000 0.000000 0.000000
vn 1.000000 0.000000 0.000000
vn 1.000000 0.000000 0.000000
vn 0.000000 0.000000 -1.000000
vn 0.000000 0.000000 -1.000000
vn 0.000000 0.000000 -1.000000
vn 0.000000 0.000000 -1.000000
vn 0.000000 0.000000 -1.000000
vn 0.000000 0.000000 -1.000000
vn -1.000000 0.000000 0.000000
vn -1.000000 0.000000 0.000000
vn -1.000000 0.000000 0.000000
vn -1.000000 0.000000 0.000000
vn -1.000000 0.000000 0.000000
vn -1.000000 0.000000 0.000000
vn 0.000000 0.000000 1.000000
vn 0.000000 0.000000 1.000000
vn 0.000000 0.000000 1.000000
vn 0.000000 0.000000 1.000000
vn 0.000000 0.000000 1.000000
vn 0.000000 0.000000 1.000000
vn 0.000000 -1.000000 0.000000
vn 0.000000 -1.000000 0.000000
vn 0.000000 -1.000000 0.000000
vn 0.000000 -1.000000 0.000000
vn 0.000000 -1.000000 0.000000
vn 0.000000 -1.000000 0.000000
vn 0.000000 0.000000 -1.000000
vn 0.000000 0.000000 -1.000000
vn 0.000000 0.000000 -1.000000
vn 0.000000 0.000000 -1.000000
vn 0.000000 0.000000 -1.000000
vn 0.000000 0.000000 -1.000000
vn 0.000000 1.000000 0.000000
vn 0.000000 1.000000 0.000000
vn 0.000000 1.000000 0.000000
vn 0.000000 1.000000 0.000000
vn 0.000000 1.000000 0.000000
vn 0.000000 1.000000 0.000000
vn 0.000000 0.000000 1.000000
vn 0.000000 0.000000 1.000000
vn 0.000000 0.000000 1.000000
vn 0.000000 0.000000 1.000000
vn 0.000000 0.000000 1.000000
vn 0.000000 0.000000 1.000000
vn -1.000000 0.000000 0.000000
vn -1.000000 0.000000 0.000000
vn -1.000000 0.000000 0.000000
vn -1.000000 0.000000 0.000000
vn -1.000000 0.000000 0.000000
vn -1.000000 0.000000 0.000000
vn 0.000000 0.000000 -1.000000
vn 0.000000 0.000000 -1.000000
vn 0.000000 0.000000 -1.000000
vn 0.000000 0.000000 -1.000000
vn 0.000000 0.000000 -1.000000
vn 0.000000 0.000000 -1.000000
vn 0.000000 -1.000000 0.000000
vn 0.000000 -1.000000 0.000000
vn 0.000000 -1.000000 0.000000
vn 0.000000 -1.000000 0.000000
vn 0.000000 -1.000000 0.000000
vn 0.000000 -1.000000 0.000000
vn 0.000000 0.000000 1.000000
vn 0.000000 0.000000 1.000000
vn 0.000000 0.000000 1.000000
vn 0.000000 0.000000 1.000000
vn 0.000000 0.000000 1.000000
vn 0.000000 0.000000 1.000000
vn 0.000000 1.000000 0.000000
vn 0.000000 1.000000 0.000000
vn 0.000000 1.000000 0.000000
vn 0.000000 1.000000 0.000000
vn 0.000000 1.000000 0.000000
vn 0.000000 1.000000 0.000000
vn 0.000000 -1.000000 0.000000
vn 0.000000 -1.000000 0.000000
vn 0.000000 -1.000000 0.000000
vn 0.000000 0.000000 -1.000000
vn 0.000000 0.000000 -1.000000
vn 0.000000 0.000000 -1.000000
vn 0.000000 0.000000 -1.000000
vn 0.000000 0.000000 -1.000000
vn 0.000000 0.000000 -1.000000
vn 0.000000 -1.000000 0.000000
vn 0.000000 -1.000000 0.000000
vn 0.000000 -1.000000 0.000000
vn 0.000000 1.000000 0.000000
vn 0.000000 1.000000 0.000000
vn 0.000000 1.000000 0.000000
vn 0.000000 0.000000 1.000000
vn 0.000000 0.000000 1.000000
vn 0.000000 0.000000 1.000000
vn 1.000000 0.000000 0.000000
vn 1.000000 0.000000 0.000000
vn 1.000000 0.000000 0.000000
vn 0.000000 -1.000000 0.000000
vn 0.000000 -1.000000 0.000000
vn 0.000000 -1.000000 0.000000
vn 0.000000 0.000000 1.000000
vn 0.000000 0.000000 1.000000
vn 0.000000 0.000000 1.000000
vn -1.000000 0.000000 0.000000
vn -1.000000 0.000000 0.000000
vn -1.000000 0.000000 0.000000
vn 0.000000 0.000000 1.000000
vn 0.000000 0.000000 1.000000
vn 0.000000 0.000000 1.000000
vn 0.000000 0.000000 -1.000000
vn 0.000000 0.000000 -1.000000
vn 0.000000 0.000000 -1.000000
vn 0.000000 0.000000 1.000000
vn 0.000000 0.000000 1.000000
vn 0.000000 0.000000 1.000000
vn 0.000000 1.000000 0.000000
vn 0.000000 1.000000 0.000000
vn 0.000000 1.000000 0.000000
vn -1.000000 0.000000 0.000000
vn -1.000000 0.000000 0.000000
vn -1.000000 0.000000 0.000000
vn 0.000000 0.000000 -1.000000
vn 0.000000 0.000000 -1.000000
vn 0.000000 0.000000 -1.000000
vn 1.000000 0.000000 0.000000
vn 1.000000 0.000000 0.000000
vn 1.000000 0.000000 0.000000
vn 0.000000 -1.000000 0.000000
vn 0.000000 -1.000000 0.000000
vn 0.000000 -1.000000 0.000000
vn 0.000000 0.000000 -1.000000
vn 0.000000 0.000000 -1.000000
vn 0.000000 0.000000 -1.000000
vn 0.000000 0.000000 -1.000000
vn 0.000000 0.000000 -1.000000
vn 0.000000 0.000000 -1.000000
vn 0.000000 -1.000000 0.000000
vn 0.000000 -1.000000 0.000000
vn 0.000000 -1.000000 0.000000
vn 0.000000 1.000000 0.000000
vn 0.000000 1.000000 0.000000
vn 0.000000 1.000000 0.000000
vn 0.000000 0.000000 1.000000
vn 0.000000 0.000000 1.000000
vn 0.000000 0.000000 1.000000
vn 1.000000 0.000000 0.000000
vn 1.000000 0.000000 0.000000
vn 1.000000 0.000000 0.000000
vn 0.000000 -1.000000 0.000000
vn 0.000000 -1.000000 0.000000
vn 0.000000 -1.000000 0.000000
vn 0.000000 0.000000 1.000000
vn 0.000000 0.000000 1.000000
vn 0.000000 0.000000 1.000000
vn -1.000000 0.000000 0.000000
vn -1.000000 0.000000 0.000000
vn -1.000000 0.000000 0.000000
vn 0.000000 0.000000 1.000000
vn 0.000000 0.000000 1.000000
vn 0.000000 0.000000 1.000000
vn 0.000000 0.000000 -1.000000
vn 0.000000 0.000000 -1.000000
vn 0.000000 0.000000 -1.000000
vn 0.000000 0.000000 1.000000
vn 0.000000 0.000000 1.000000
vn 0.000000 0.000000 1.000000
vn 0.000000 1.000000 0.000000
vn 0.000000 1.000000 0.000000
vn 0.000000 1.000000 0.000000
vn -1.000000 0.000000 0.000000
vn -1.000000 0.000000 0.000000
vn -1.000000 0.000000 0.000000
vn 0.000000 0.000000 -1.000000
vn 0.000000 0.000000 -1.000000
vn 0.000000 0.000000 -1.000000
vn 1.000000 0.000000 0.000000
vn 1.000000 0.000000 0.000000
vn 1.000000 0.000000 0.000000
vn 0.000000 0.000000 1.000000
vn 0.000000 0.000000 1.000000
vn 0.000000 0.000000 1.000000
vn 0.000000 1.000000 0.000000
vn 0.000000 1.000000 0.000000
vn 0.000000 1.000000 0.000000
vn -1.000000 0.000000 0.000000
vn -1.000000 0.000000 0.000000
vn -1.000000 0.000000 0.000000
vn 1.000000 0.000000 0.000000
vn 1.000000 0.000000 0.000000
vn 1.000000 0.000000 0.000000
vn 0.000000 0.000000 -1.000000
vn 0.000000 0.000000 -1.000000
vn 0.000000 0.000000 -1.000000
vn 0.000000 0.000000 1.000000
vn 0.000000 0.000000 1.000000
vn 0.000000 0.000000 1.000000
vn 0.000000 1.000000 0.000000
vn 0.000000 1.000000 0.000000
vn 0.000000 1.000000 0.000000
vn -1.000000 0.000000 0.000000
vn -1.000000 0.000000 0.000000
vn -1.000000 0.000000 0.000000
vn 1.000000 0.000000 0.000000
vn 1.000000 0.000000 0.000000
vn 1.000000 0.000000 0.000000
vn 0.000000 0.000000 -1.000000
vn 0.000000 0.000000 -1.000000
vn 0.000000 0.000000 -1.000000
s off
g polySurface8
f 1/1/1 4/2/2 2/3/3
f 2/3/4 4/2/5 3/4/6
f 13/5/7 14/6/8 16/7/9
f 16/7/10 14/6/11 15/8/12
f 7/9/13 6/10/14 4/11/15
f 4/11/16 6/10/17 3/12/18
f 8/13/19 7/9/20 1/14/21
f 1/14/22 7/9/23 4/11/24
f 5/15/25 8/16/26 2/3/27
f 2/3/28 8/16/29 1/1/30
f 5/15/31 2/3/32 9/17/33
f 9/17/34 2/3/35 10/18/36
f 2/3/37 3/12/38 10/18/39
f 10/18/40 3/12/41 11/19/42
f 3/12/43 6/10/44 11/19/45
f 11/19/46 6/10/47 12/20/48
f 6/10/49 5/15/50 12/20/51
f 12/20/52 5/15/53 9/17/54
f 9/17/55 10/18/56 13/5/57
f 13/5/58 10/18/59 14/6/60
f 10/18/61 11/19/62 14/6/63
f 14/6/64 11/19/65 15/8/66
f 11/19/67 12/20/68 15/8/69
f 15/8/70 12/20/71 16/7/72
f 22/21/73 21/22/74 24/23/75
f 24/23/76 21/22/77 23/24/78
f 12/20/79 9/17/80 18/25/81
f 18/25/82 9/17/83 17/26/84
f 9/17/85 13/5/86 17/26/87
f 17/26/88 13/5/89 19/27/90
f 13/5/91 16/7/92 19/27/93
f 19/27/94 16/7/95 20/28/96
f 16/7/97 12/20/98 20/28/99
f 20/28/100 12/20/101 18/25/102
f 18/25/103 17/26/104 22/21/105
f 22/21/106 17/26/107 21/22/108
f 17/26/109 19/27/110 21/22/111
f 21/22/112 19/27/113 23/24/114
f 29/29/115 30/30/116 32/31/117
f 32/31/118 30/30/119 31/32/120
f 20/28/121 18/25/122 24/23/123
f 24/23/124 18/25/125 22/21/126
f 19/27/127 20/28/128 25/33/129
f 25/33/130 20/28/131 26/34/132
f 20/28/133 24/23/134 26/34/135
f 26/34/136 24/23/137 27/35/138
f 24/23/139 23/24/140 27/35/141
f 27/35/142 23/24/143 28/36/144
f 23/24/145 19/27/146 28/36/147
f 28/36/148 19/27/149 25/33/150
f 33/37/151 34/38/152 36/39/153
f 36/39/154 34/38/155 35/40/156
f 26/34/157 27/35/158 30/30/159
f 30/30/160 27/35/161 31/32/162
f 27/35/163 28/36/164 31/32/165
f 31/32/166 28/36/167 32/31/168
f 28/36/169 25/33/170 32/31/171
f 32/31/172 25/33/173 29/29/174
f 25/33/175 26/34/176 33/37/177
f 33/37/178 26/34/179 34/38/180
f 26/34/181 30/30/182 34/38/183
f 34/38/184 30/30/185 35/40/186
f 30/30/187 29/29/188 35/40/189
f 35/40/190 29/29/191 36/39/192
f 29/29/193 25/33/194 36/39/195
f 36/39/196 25/33/197 33/37/198
f 37/41/199 38/42/200 40/43/201
f 40/43/202 38/42/203 39/44/204
f 6/10/205 7/9/206 37/41/207
f 37/41/208 7/9/209 38/42/210
f 7/9/211 8/16/212 38/42/213
f 38/42/214 8/16/215 39/44/216
f 8/16/217 5/15/218 39/44/219
f 39/44/220 5/15/221 40/43/222
f 5/15/223 6/10/224 40/43/225
f 40/43/226 6/10/227 37/41/228
f 42/45/229 48/46/230 46/47/231
f 45/48/232 52/49/233 46/50/234
f 47/51/235 46/50/236 48/52/237
f 44/53/238 56/54/239 48/46/240
f 45/55/241 43/56/242 41/57/243
f 41/58/244 44/59/245 42/60/246
f 51/61/247 50/62/248 52/63/249
f 46/47/250 50/64/251 42/45/252
f 42/60/253 49/65/254 41/58/255
f 53/66/256 56/67/257 54/68/258
f 43/69/259 54/70/260 44/59/261
f 48/52/262 55/71/263 47/51/264
f 43/69/265 59/72/266 53/73/267
f 58/74/268 59/75/269 57/76/270
f 53/66/271 60/77/272 55/78/273
f 55/71/274 58/79/275 47/51/276
f 47/80/277 57/76/278 43/56/279
f 42/45/280 44/53/281 48/46/282
f 45/48/283 51/81/284 52/49/285
f 47/51/286 45/48/287 46/50/288
f 44/53/289 54/82/290 56/54/291
f 45/55/292 47/80/293 43/56/294
f 41/58/295 43/69/296 44/59/297
f 51/61/298 49/83/299 50/62/300
f 46/47/301 52/84/302 50/64/303
f 42/60/304 50/85/305 49/65/306
f 53/66/307 55/78/308 56/67/309
f 43/69/310 53/73/311 54/70/312
f 48/52/313 56/86/314 55/71/315
f 43/69/316 57/87/317 59/72/318
f 58/74/319 60/88/320 59/75/321
f 53/66/322 59/89/323 60/77/324
f 55/71/325 60/90/326 58/79/327
f 47/80/328 58/74/329 57/76/330
f 49/65/331 61/91/332 41/58/333
f 62/92/334 63/93/335 64/94/336
f 41/57/337 62/92/338 45/55/339
f 51/61/340 63/93/341 49/83/342
f 45/48/343 64/94/344 51/81/345
f 49/65/346 63/95/347 61/91/348
f 62/92/349 61/91/350 63/93/351
f 41/57/352 61/96/353 62/92/354
f 51/61/355 64/97/356 63/93/357
f 45/48/358 62/98/359 64/94/360
