# This file uses centimeters as units for non-parametric coordinates.

g default
v 0.500000 -0.500000 0.500000
v 3.500000 -0.500000 0.500000
v 0.500000 0.500000 0.500000
v 3.500000 0.500000 0.500000
v 0.500000 0.500000 -0.500000
v 3.500000 0.500000 -0.500000
v 0.500000 -0.500000 -0.500000
v 3.500000 -0.500000 -0.500000
v 2.500000 0.500000 0.500000
v 2.500000 0.500000 -0.500000
v 2.500000 -0.500000 -0.500000
v 2.500000 -0.500000 0.500000
v 1.500000 0.500000 0.500000
v 1.500000 0.500000 -0.500000
v 1.500000 -0.500000 -0.500000
v 1.500000 -0.500000 0.500000
v 0.500000 1.500000 0.500000
v 1.500000 1.500000 0.500000
v 1.500000 1.500000 -0.500000
v 0.500000 1.500000 -0.500000
v 2.500000 1.500000 0.500000
v 3.500000 1.500000 0.500000
v 3.500000 1.500000 -0.500000
v 2.500000 1.500000 -0.500000
v 0.500000 2.500000 0.500000
v 1.500000 2.500000 0.500000
v 1.500000 2.500000 -0.500000
v 0.500000 2.500000 -0.500000
v 2.500000 2.500000 0.500000
v 3.500000 2.500000 0.500000
v 3.500000 2.500000 -0.500000
v 2.500000 2.500000 -0.500000
v 0.500000 3.500000 0.500000
v 1.500000 3.500000 0.500000
v 1.500000 3.500000 -0.500000
v 0.500000 3.500000 -0.500000
v 2.500000 3.500000 0.500000
v 3.500000 3.500000 0.500000
v 3.500000 3.500000 -0.500000
v 2.500000 3.500000 -0.500000
v 0.500000 4.500000 0.500000
v 1.500000 4.500000 0.500000
v 1.500000 4.500000 -0.500000
v 0.500000 4.500000 -0.500000
v 2.500000 4.500000 0.500000
v 3.500000 4.500000 0.500000
v 3.500000 4.500000 -0.500000
v 2.500000 4.500000 -0.500000
v -0.500000 -0.500000 0.500000
v -0.500000 0.500000 0.500000
v -0.500000 0.500000 -0.500000
v -0.500000 -0.500000 -0.500000
v -1.500000 0.500000 0.500000
v -1.500000 0.500000 -0.500000
v -1.500000 -0.500000 -0.500000
v -1.500000 -0.500000 0.500000
v -1.500000 3.500000 0.500000
v -0.500000 3.500000 0.500000
v -0.500000 3.500000 -0.500000
v -1.500000 3.500000 -0.500000
v -1.500000 4.500000 0.500000
v -0.500000 4.500000 0.500000
v -0.500000 4.500000 -0.500000
v -1.500000 4.500000 -0.500000
v -3.500000 3.500000 0.500000
v -3.500000 3.500000 -0.500000
v -3.500000 4.500000 0.500000
v -3.500000 4.500000 -0.500000
v -3.500000 0.500000 -0.500000
v -3.500000 -0.500000 -0.500000
v -3.500000 -0.500000 0.500000
v -3.500000 0.500000 0.500000
v -4.500000 3.500000 0.500000
v -4.500000 3.500000 -0.500000
v -4.500000 4.500000 0.500000
v -4.500000 4.500000 -0.500000
v -4.500000 0.500000 -0.500000
v -4.500000 -0.500000 -0.500000
v -4.500000 -0.500000 0.500000
v -4.500000 0.500000 0.500000
vt 0.375000 0.000000
vt 0.458333 0.000000
vt 0.375000 0.250000
vt 0.458333 0.250000
vt 0.375000 0.250000
vt 0.458333 0.250000
vt 0.375000 0.500000
vt 0.458333 0.500000
vt 0.375000 0.500000
vt 0.458333 0.500000
vt 0.375000 0.750000
vt 0.458333 0.750000
vt 0.375000 1.000000
vt 0.458333 1.000000
vt 0.625000 0.000000
vt 0.875000 0.000000
vt 0.625000 0.250000
vt 0.875000 0.250000
vt 0.125000 0.000000
vt 0.125000 0.250000
vt 0.541667 0.250000
vt 0.625000 0.250000
vt 0.541667 0.500000
vt 0.625000 0.500000
vt 0.541667 0.750000
vt 0.541667 0.500000
vt 0.625000 0.750000
vt 0.625000 0.500000
vt 0.541667 1.000000
vt 0.625000 1.000000
vt 0.541667 0.250000
vt 0.541667 0.000000
vt 0.375000 0.250000
vt 0.458333 0.250000
vt 0.458333 0.500000
vt 0.375000 0.500000
vt 0.541667 0.250000
vt 0.625000 0.250000
vt 0.625000 0.500000
vt 0.541667 0.500000
vt 0.375000 0.250000
vt 0.458333 0.250000
vt 0.458333 0.500000
vt 0.375000 0.500000
vt 0.541667 0.250000
vt 0.625000 0.250000
vt 0.625000 0.500000
vt 0.541667 0.500000
vt 0.375000 0.250000
vt 0.458333 0.250000
vt 0.458333 0.500000
vt 0.375000 0.500000
vt 0.541667 0.250000
vt 0.625000 0.250000
vt 0.625000 0.500000
vt 0.541667 0.500000
vt 0.625000 0.000000
vt 0.875000 0.000000
vt 0.625000 0.250000
vt 0.875000 0.250000
vt 0.541667 0.250000
vt 0.625000 0.250000
vt 0.541667 0.500000
vt 0.625000 0.500000
vt 0.541667 0.750000
vt 0.541667 0.500000
vt 0.625000 0.750000
vt 0.625000 0.500000
vt 0.541667 1.000000
vt 0.625000 1.000000
vt 0.541667 0.250000
vt 0.541667 0.000000
vt 0.541667 0.250000
vt 0.625000 0.250000
vt 0.625000 0.500000
vt 0.541667 0.500000
vt 0.541667 0.500000
vt 0.541667 0.250000
vt 0.541667 0.500000
vt 0.541667 0.250000
vt 0.541667 0.500000
vt 0.541667 0.750000
vt 0.541667 0.250000
vt 0.541667 0.000000
vt 0.541667 0.500000
vt 0.541667 0.250000
vt 0.541667 0.250000
vt 0.541667 0.500000
vt 0.541667 0.500000
vt 0.541667 0.750000
vt 0.541667 0.000000
vt 0.541667 0.250000
vn 0.000000 0.000000 1.000000
vn 0.000000 0.000000 1.000000
vn 0.000000 0.000000 1.000000
vn 0.000000 0.000000 1.000000
vn 0.000000 0.000000 1.000000
vn 0.000000 0.000000 1.000000
vn 0.000000 1.000000 0.000000
vn 0.000000 1.000000 0.000000
vn 0.000000 1.000000 0.000000
vn 0.000000 1.000000 0.000000
vn 0.000000 1.000000 0.000000
vn 0.000000 1.000000 0.000000
vn 0.000000 0.000000 -1.000000
vn 0.000000 0.000000 -1.000000
vn 0.000000 0.000000 -1.000000
vn 0.000000 0.000000 -1.000000
vn 0.000000 0.000000 -1.000000
vn 0.000000 0.000000 -1.000000
vn 0.000000 -1.000000 0.000000
vn 0.000000 -1.000000 0.000000
vn 0.000000 -1.000000 0.000000
vn 0.000000 -1.000000 0.000000
vn 0.000000 -1.000000 0.000000
vn 0.000000 -1.000000 0.000000
vn 1.000000 0.000000 0.000000
vn 1.000000 0.000000 0.000000
vn 1.000000 0.000000 0.000000
vn 1.000000 0.000000 0.000000
vn 1.000000 0.000000 0.000000
vn 1.000000 0.000000 0.000000
vn -1.000000 0.000000 0.000000
vn -1.000000 0.000000 0.000000
vn -1.000000 0.000000 0.000000
vn -1.000000 0.000000 0.000000
vn -1.000000 0.000000 0.000000
vn -1.000000 0.000000 0.000000
vn 0.000000 1.000000 0.000000
vn 0.000000 1.000000 0.000000
vn 0.000000 1.000000 0.000000
vn 0.000000 1.000000 0.000000
vn 0.000000 1.000000 0.000000
vn 0.000000 1.000000 0.000000
vn 0.000000 0.000000 -1.000000
vn 0.000000 0.000000 -1.000000
vn 0.000000 0.000000 -1.000000
vn 0.000000 0.000000 -1.000000
vn 0.000000 0.000000 -1.000000
vn 0.000000 0.000000 -1.000000
vn 0.000000 -1.000000 0.000000
vn 0.000000 -1.000000 0.000000
vn 0.000000 -1.000000 0.000000
vn 0.000000 -1.000000 0.000000
vn 0.000000 -1.000000 0.000000
vn 0.000000 -1.000000 0.000000
vn 0.000000 0.000000 1.000000
vn 0.000000 0.000000 1.000000
vn 0.000000 0.000000 1.000000
vn 0.000000 0.000000 1.000000
vn 0.000000 0.000000 1.000000
vn 0.000000 0.000000 1.000000
vn 0.000000 1.000000 0.000000
vn 0.000000 1.000000 0.000000
vn 0.000000 1.000000 0.000000
vn 0.000000 1.000000 0.000000
vn 0.000000 1.000000 0.000000
vn 0.000000 1.000000 0.000000
vn 0.000000 0.000000 -1.000000
vn 0.000000 0.000000 -1.000000
vn 0.000000 0.000000 -1.000000
vn 0.000000 0.000000 -1.000000
vn 0.000000 0.000000 -1.000000
vn 0.000000 0.000000 -1.000000
vn 0.000000 -1.000000 0.000000
vn 0.000000 -1.000000 0.000000
vn 0.000000 -1.000000 0.000000
vn 0.000000 -1.000000 0.000000
vn 0.000000 -1.000000 0.000000
vn 0.000000 -1.000000 0.000000
vn 0.000000 0.000000 1.000000
vn 0.000000 0.000000 1.000000
vn 0.000000 0.000000 1.000000
vn 0.000000 0.000000 1.000000
vn 0.000000 0.000000 1.000000
vn 0.000000 0.000000 1.000000
vn 0.000000 0.000000 1.000000
vn 0.000000 0.000000 1.000000
vn 0.000000 0.000000 1.000000
vn 0.000000 0.000000 1.000000
vn 0.000000 0.000000 1.000000
vn 0.000000 0.000000 1.000000
vn 1.000000 0.000000 0.000000
vn 1.000000 0.000000 0.000000
vn 1.000000 0.000000 0.000000
vn 1.000000 0.000000 0.000000
vn 1.000000 0.000000 0.000000
vn 1.000000 0.000000 0.000000
vn 0.000000 0.000000 -1.000000
vn 0.000000 0.000000 -1.000000
vn 0.000000 0.000000 -1.000000
vn 0.000000 0.000000 -1.000000
vn 0.000000 0.000000 -1.000000
vn 0.000000 0.000000 -1.000000
vn -1.000000 0.000000 0.000000
vn -1.000000 0.000000 0.000000
vn -1.000000 0.000000 0.000000
vn -1.000000 0.000000 0.000000
vn -1.000000 0.000000 0.000000
vn -1.000000 0.000000 0.000000
vn 0.000000 0.000000 1.000000
vn 0.000000 0.000000 1.000000
vn 0.000000 0.000000 1.000000
vn 0.000000 0.000000 1.000000
vn 0.000000 0.000000 1.000000
vn 0.000000 0.000000 1.000000
vn 1.000000 0.000000 0.000000
vn 1.000000 0.000000 0.000000
vn 1.000000 0.000000 0.000000
vn 1.000000 0.000000 0.000000
vn 1.000000 0.000000 0.000000
vn 1.000000 0.000000 0.000000
vn 0.000000 0.000000 -1.000000
vn 0.000000 0.000000 -1.000000
vn 0.000000 0.000000 -1.000000
vn 0.000000 0.000000 -1.000000
vn 0.000000 0.000000 -1.000000
vn 0.000000 0.000000 -1.000000
vn -1.000000 0.000000 0.000000
vn -1.000000 0.000000 0.000000
vn -1.000000 0.000000 0.000000
vn -1.000000 0.000000 0.000000
vn -1.000000 0.000000 0.000000
vn -1.000000 0.000000 0.000000
vn 0.000000 0.000000 1.000000
vn 0.000000 0.000000 1.000000
vn 0.000000 0.000000 1.000000
vn 0.000000 0.000000 1.000000
vn 0.000000 0.000000 1.000000
vn 0.000000 0.000000 1.000000
vn 0.000000 0.000000 -1.000000
vn 0.000000 0.000000 -1.000000
vn 0.000000 0.000000 -1.000000
vn 0.000000 0.000000 -1.000000
vn 0.000000 0.000000 -1.000000
vn 0.000000 0.000000 -1.000000
vn -1.000000 0.000000 0.000000
vn -1.000000 0.000000 0.000000
vn -1.000000 0.000000 0.000000
vn -1.000000 0.000000 0.000000
vn -1.000000 0.000000 0.000000
vn -1.000000 0.000000 0.000000
vn 0.000000 0.000000 1.000000
vn 0.000000 0.000000 1.000000
vn 0.000000 0.000000 1.000000
vn 0.000000 0.000000 1.000000
vn 0.000000 0.000000 1.000000
vn 0.000000 0.000000 1.000000
vn 1.000000 0.000000 0.000000
vn 1.000000 0.000000 0.000000
vn 1.000000 0.000000 0.000000
vn 1.000000 0.000000 0.000000
vn 1.000000 0.000000 0.000000
vn 1.000000 0.000000 0.000000
vn 0.000000 0.000000 -1.000000
vn 0.000000 0.000000 -1.000000
vn 0.000000 0.000000 -1.000000
vn 0.000000 0.000000 -1.000000
vn 0.000000 0.000000 -1.000000
vn 0.000000 0.000000 -1.000000
vn 0.000000 0.000000 1.000000
vn 0.000000 0.000000 1.000000
vn 0.000000 0.000000 1.000000
vn 0.000000 0.000000 1.000000
vn 0.000000 0.000000 1.000000
vn 0.000000 0.000000 1.000000
vn 1.000000 0.000000 0.000000
vn 1.000000 0.000000 0.000000
vn 1.000000 0.000000 0.000000
vn 1.000000 0.000000 0.000000
vn 1.000000 0.000000 0.000000
vn 1.000000 0.000000 0.000000
vn 0.000000 0.000000 -1.000000
vn 0.000000 0.000000 -1.000000
vn 0.000000 0.000000 -1.000000
vn 0.000000 0.000000 -1.000000
vn 0.000000 0.000000 -1.000000
vn 0.000000 0.000000 -1.000000
vn -1.000000 0.000000 0.000000
vn -1.000000 0.000000 0.000000
vn -1.000000 0.000000 0.000000
vn -1.000000 0.000000 0.000000
vn -1.000000 0.000000 0.000000
vn -1.000000 0.000000 0.000000
vn 0.000000 0.000000 1.000000
vn 0.000000 0.000000 1.000000
vn 0.000000 0.000000 1.000000
vn 0.000000 0.000000 1.000000
vn 0.000000 0.000000 1.000000
vn 0.000000 0.000000 1.000000
vn 1.000000 0.000000 0.000000
vn 1.000000 0.000000 0.000000
vn 1.000000 0.000000 0.000000
vn 1.000000 0.000000 0.000000
vn 1.000000 0.000000 0.000000
vn 1.000000 0.000000 0.000000
vn 0.000000 0.000000 -1.000000
vn 0.000000 0.000000 -1.000000
vn 0.000000 0.000000 -1.000000
vn 0.000000 0.000000 -1.000000
vn 0.000000 0.000000 -1.000000
vn 0.000000 0.000000 -1.000000
vn -1.000000 0.000000 0.000000
vn -1.000000 0.000000 0.000000
vn -1.000000 0.000000 0.000000
vn -1.000000 0.000000 0.000000
vn -1.000000 0.000000 0.000000
vn -1.000000 0.000000 0.000000
vn 0.000000 0.000000 -1.000000
vn 0.000000 0.000000 -1.000000
vn 0.000000 0.000000 -1.000000
vn 0.000000 0.000000 -1.000000
vn 0.000000 0.000000 -1.000000
vn 0.000000 0.000000 -1.000000
vn 0.000000 1.000000 0.000000
vn 0.000000 1.000000 0.000000
vn 0.000000 1.000000 0.000000
vn 0.000000 1.000000 0.000000
vn 0.000000 1.000000 0.000000
vn 0.000000 1.000000 0.000000
vn 0.000000 0.000000 1.000000
vn 0.000000 0.000000 1.000000
vn 0.000000 0.000000 1.000000
vn 0.000000 0.000000 1.000000
vn 0.000000 0.000000 1.000000
vn 0.000000 0.000000 1.000000
vn 0.000000 -1.000000 0.000000
vn 0.000000 -1.000000 0.000000
vn 0.000000 -1.000000 0.000000
vn 0.000000 -1.000000 0.000000
vn 0.000000 -1.000000 0.000000
vn 0.000000 -1.000000 0.000000
vn 0.000000 0.000000 1.000000
vn 0.000000 0.000000 1.000000
vn 0.000000 0.000000 1.000000
vn 0.000000 0.000000 1.000000
vn 0.000000 0.000000 1.000000
vn 0.000000 0.000000 1.000000
vn 0.000000 0.000000 -1.000000
vn 0.000000 0.000000 -1.000000
vn 0.000000 0.000000 -1.000000
vn 0.000000 0.000000 -1.000000
vn 0.000000 0.000000 -1.000000
vn 0.000000 0.000000 -1.000000
vn -1.000000 0.000000 0.000000
vn -1.000000 0.000000 0.000000
vn -1.000000 0.000000 0.000000
vn -1.000000 0.000000 0.000000
vn -1.000000 0.000000 0.000000
vn -1.000000 0.000000 0.000000
vn 0.000000 0.000000 1.000000
vn 0.000000 0.000000 1.000000
vn 0.000000 0.000000 1.000000
vn 0.000000 0.000000 1.000000
vn 0.000000 0.000000 1.000000
vn 0.000000 0.000000 1.000000
vn 1.000000 0.000000 0.000000
vn 1.000000 0.000000 0.000000
vn 1.000000 0.000000 0.000000
vn 1.000000 0.000000 0.000000
vn 1.000000 0.000000 0.000000
vn 1.000000 0.000000 0.000000
vn 0.000000 0.000000 -1.000000
vn 0.000000 0.000000 -1.000000
vn 0.000000 0.000000 -1.000000
vn 0.000000 0.000000 -1.000000
vn 0.000000 0.000000 -1.000000
vn 0.000000 0.000000 -1.000000
vn 0.000000 0.000000 -1.000000
vn 0.000000 0.000000 -1.000000
vn 0.000000 0.000000 -1.000000
vn 0.000000 0.000000 -1.000000
vn 0.000000 0.000000 -1.000000
vn 0.000000 0.000000 -1.000000
vn 0.000000 1.000000 0.000000
vn 0.000000 1.000000 0.000000
vn 0.000000 1.000000 0.000000
vn 0.000000 1.000000 0.000000
vn 0.000000 1.000000 0.000000
vn 0.000000 1.000000 0.000000
vn 0.000000 0.000000 1.000000
vn 0.000000 0.000000 1.000000
vn 0.000000 0.000000 1.000000
vn 0.000000 0.000000 1.000000
vn 0.000000 0.000000 1.000000
vn 0.000000 0.000000 1.000000
vn 0.000000 -1.000000 0.000000
vn 0.000000 -1.000000 0.000000
vn 0.000000 -1.000000 0.000000
vn 0.000000 -1.000000 0.000000
vn 0.000000 -1.000000 0.000000
vn 0.000000 -1.000000 0.000000
vn 1.000000 0.000000 0.000000
vn 1.000000 0.000000 0.000000
vn 1.000000 0.000000 0.000000
vn 1.000000 0.000000 0.000000
vn 0.000000 1.000000 0.000000
vn 0.000000 1.000000 0.000000
vn 0.000000 1.000000 0.000000
vn 0.000000 1.000000 0.000000
vn 0.000000 0.000000 -1.000000
vn 0.000000 0.000000 -1.000000
vn 0.000000 0.000000 -1.000000
vn 0.000000 0.000000 -1.000000
vn 0.000000 -1.000000 0.000000
vn 0.000000 -1.000000 0.000000
vn 0.000000 -1.000000 0.000000
vn 0.000000 -1.000000 0.000000
vn 0.000000 0.000000 1.000000
vn 0.000000 0.000000 1.000000
vn 0.000000 0.000000 1.000000
vn 0.000000 0.000000 1.000000
vn 0.000000 0.000000 1.000000
vn 0.000000 0.000000 1.000000
vn 0.000000 0.000000 1.000000
vn 0.000000 0.000000 1.000000
vn 1.000000 0.000000 0.000000
vn 1.000000 0.000000 0.000000
vn 1.000000 0.000000 0.000000
vn 1.000000 0.000000 0.000000
vn 0.000000 0.000000 -1.000000
vn 0.000000 0.000000 -1.000000
vn 0.000000 0.000000 -1.000000
vn 0.000000 0.000000 -1.000000
vn 0.000000 0.000000 -1.000000
vn 0.000000 0.000000 -1.000000
vn 0.000000 0.000000 -1.000000
vn 0.000000 0.000000 -1.000000
vn -1.000000 0.000000 0.000000
vn -1.000000 0.000000 0.000000
vn -1.000000 0.000000 0.000000
vn -1.000000 0.000000 0.000000
vn 0.000000 0.000000 1.000000
vn 0.000000 0.000000 1.000000
vn 0.000000 0.000000 1.000000
vn 0.000000 0.000000 1.000000
vn 1.000000 0.000000 0.000000
vn 1.000000 0.000000 0.000000
vn 1.000000 0.000000 0.000000
vn 1.000000 0.000000 0.000000
vn -1.000000 0.000000 0.000000
vn -1.000000 0.000000 0.000000
vn -1.000000 0.000000 0.000000
vn -1.000000 0.000000 0.000000
vn -1.000000 0.000000 0.000000
vn -1.000000 0.000000 0.000000
vn -1.000000 0.000000 0.000000
vn -1.000000 0.000000 0.000000
vn 0.000000 -1.000000 0.000000
vn 0.000000 -1.000000 0.000000
vn 0.000000 -1.000000 0.000000
vn 0.000000 -1.000000 0.000000
vn 0.000000 0.000000 1.000000
vn 0.000000 0.000000 1.000000
vn 0.000000 1.000000 0.000000
vn 0.000000 1.000000 0.000000
vn 0.000000 0.000000 -1.000000
vn 0.000000 0.000000 -1.000000
vn 0.000000 0.000000 -1.000000
vn 0.000000 0.000000 -1.000000
vn 0.000000 -1.000000 0.000000
vn 0.000000 -1.000000 0.000000
vn 0.000000 0.000000 1.000000
vn 0.000000 0.000000 1.000000
vn 0.000000 1.000000 0.000000
vn 0.000000 1.000000 0.000000
vn 0.000000 1.000000 0.000000
vn 0.000000 1.000000 0.000000
vn 0.000000 0.000000 1.000000
vn 0.000000 0.000000 1.000000
vn 0.000000 1.000000 0.000000
vn 0.000000 1.000000 0.000000
vn 0.000000 0.000000 -1.000000
vn 0.000000 0.000000 -1.000000
vn 0.000000 0.000000 -1.000000
vn 0.000000 0.000000 -1.000000
vn 0.000000 -1.000000 0.000000
vn 0.000000 -1.000000 0.000000
vn 0.000000 0.000000 1.000000
vn 0.000000 0.000000 1.000000
vn 1.000000 0.000000 0.000000
vn 1.000000 0.000000 0.000000
vn 1.000000 0.000000 0.000000
vn 1.000000 0.000000 0.000000
vn 0.000000 0.000000 1.000000
vn 0.000000 0.000000 1.000000
vn 0.000000 0.000000 1.000000
vn 0.000000 0.000000 1.000000
vn -1.000000 0.000000 0.000000
vn -1.000000 0.000000 0.000000
vn -1.000000 0.000000 0.000000
vn -1.000000 0.000000 0.000000
vn 0.000000 0.000000 -1.000000
vn 0.000000 0.000000 -1.000000
vn 0.000000 0.000000 -1.000000
vn 0.000000 0.000000 -1.000000
s off
g eight:pCube2
f 1/1/1 16/2/2 3/3/3
f 3/3/4 16/2/5 13/4/6
f 41/5/7 42/6/8 44/7/9
f 44/7/10 42/6/11 43/8/12
f 5/9/13 14/10/14 7/11/15
f 7/11/16 14/10/17 15/12/18
f 7/11/19 15/12/20 1/13/21
f 1/13/22 15/12/23 16/14/24
f 2/15/25 8/16/26 4/17/27
f 4/17/28 8/16/29 6/18/30
f 7/19/31 1/1/32 5/20/33
f 5/20/34 1/1/35 3/3/36
f 45/21/37 46/22/38 48/23/39
f 48/23/40 46/22/41 47/24/42
f 11/25/43 10/26/44 8/27/45
f 8/27/46 10/26/47 6/28/48
f 12/29/49 11/25/50 2/30/51
f 2/30/52 11/25/53 8/27/54
f 9/31/55 12/32/56 4/17/57
f 4/17/58 12/32/59 2/15/60
f 13/4/61 9/31/62 14/10/63
f 14/10/64 9/31/65 10/26/66
f 15/12/67 14/10/68 11/25/69
f 11/25/70 14/10/71 10/26/72
f 16/14/73 15/12/74 12/29/75
f 12/29/76 15/12/77 11/25/78
f 13/4/79 16/2/80 9/31/81
f 9/31/82 16/2/83 12/32/84
f 3/3/85 13/4/86 17/33/87
f 17/33/88 13/4/89 18/34/90
f 13/4/91 14/10/92 18/34/93
f 18/34/94 14/10/95 19/35/96
f 14/10/97 5/9/98 19/35/99
f 19/35/100 5/9/101 20/36/102
f 5/9/103 3/3/104 20/36/105
f 20/36/106 3/3/107 17/33/108
f 9/31/109 4/17/110 21/37/111
f 21/37/112 4/17/113 22/38/114
f 4/17/115 6/28/116 22/38/117
f 22/38/118 6/28/119 23/39/120
f 6/28/121 10/26/122 23/39/123
f 23/39/124 10/26/125 24/40/126
f 10/26/127 9/31/128 24/40/129
f 24/40/130 9/31/131 21/37/132
f 17/33/133 18/34/134 25/41/135
f 25/41/136 18/34/137 26/42/138
f 19/35/139 20/36/140 27/43/141
f 27/43/142 20/36/143 28/44/144
f 20/36/145 17/33/146 28/44/147
f 28/44/148 17/33/149 25/41/150
f 21/37/151 22/38/152 29/45/153
f 29/45/154 22/38/155 30/46/156
f 22/38/157 23/39/158 30/46/159
f 30/46/160 23/39/161 31/47/162
f 23/39/163 24/40/164 31/47/165
f 31/47/166 24/40/167 32/48/168
f 25/41/169 26/42/170 33/49/171
f 33/49/172 26/42/173 34/50/174
f 26/42/175 27/43/176 34/50/177
f 34/50/178 27/43/179 35/51/180
f 27/43/181 28/44/182 35/51/183
f 35/51/184 28/44/185 36/52/186
f 28/44/187 25/41/188 36/52/189
f 36/52/190 25/41/191 33/49/192
f 29/45/193 30/46/194 37/53/195
f 37/53/196 30/46/197 38/54/198
f 30/46/199 31/47/200 38/54/201
f 38/54/202 31/47/203 39/55/204
f 31/47/205 32/48/206 39/55/207
f 39/55/208 32/48/209 40/56/210
f 32/48/211 29/45/212 40/56/213
f 40/56/214 29/45/215 37/53/216
f 19/35/217 27/43/218 24/40/219
f 24/40/220 27/43/221 32/48/222
f 27/43/223 26/42/224 32/48/225
f 32/48/226 26/42/227 29/45/228
f 26/42/229 18/34/230 29/45/231
f 29/45/232 18/34/233 21/37/234
f 18/34/235 19/35/236 21/37/237
f 21/37/238 19/35/239 24/40/240
f 33/49/241 34/50/242 41/5/243
f 41/5/244 34/50/245 42/6/246
f 35/51/247 36/52/248 43/8/249
f 43/8/250 36/52/251 44/7/252
f 36/52/253 33/49/254 44/7/255
f 44/7/256 33/49/257 41/5/258
f 37/53/259 38/54/260 45/21/261
f 45/21/262 38/54/263 46/22/264
f 38/54/265 39/55/266 46/22/267
f 46/22/268 39/55/269 47/24/270
f 39/55/271 40/56/272 47/24/273
f 47/24/274 40/56/275 48/23/276
f 35/51/277 43/8/278 40/56/279
f 40/56/280 43/8/281 48/23/282
f 43/8/283 42/6/284 48/23/285
f 48/23/286 42/6/287 45/21/288
f 42/6/289 34/50/290 45/21/291
f 45/21/292 34/50/293 37/53/294
f 34/50/295 35/51/296 37/53/297
f 37/53/298 35/51/299 40/56/300
s 1
f 49/57/301 52/58/302 50/59/303
f 50/59/303 52/58/302 51/60/304
s 2
f 61/61/305 62/62/306 64/63/307
f 64/63/307 62/62/306 63/64/308
s 3
f 55/65/309 54/66/310 52/67/311
f 52/67/311 54/66/310 51/68/312
s 4
f 56/69/313 55/65/314 49/70/315
f 49/70/315 55/65/314 52/67/316
s 5
f 53/71/317 56/72/318 50/59/319
f 50/59/319 56/72/318 49/57/320
s 6
f 57/73/321 58/74/322 61/61/323
f 61/61/323 58/74/322 62/62/324
s 7
f 58/74/325 59/75/326 62/62/327
f 62/62/327 59/75/326 63/64/328
s 8
f 59/75/329 60/76/330 63/64/331
f 63/64/331 60/76/330 64/63/332
s 9
f 51/68/333 54/66/334 59/75/335
f 59/75/335 54/66/334 60/76/336
s 10
f 54/66/337 53/71/338 60/76/339
f 60/76/339 53/71/338 57/73/340
s 11
f 53/71/341 50/59/342 57/73/343
f 57/73/343 50/59/342 58/74/344
s 12
f 50/59/345 51/60/346 58/74/347
f 58/74/347 51/60/346 59/75/348
s 13
f 74/77/349 73/78/350 76/79/351
f 76/79/351 73/78/350 75/80/352
s 14
f 77/81/353 78/82/354 80/83/355
f 80/83/355 78/82/354 79/84/356
s 15
f 60/76/357 57/73/358 66/85/359
f 66/85/359 57/73/358 65/86/360
s 6
f 57/73/321 61/61/323 65/86/361
f 65/86/361 61/61/323 67/87/362
s 2
f 61/61/305 64/63/307 67/87/363
f 67/87/363 64/63/307 68/88/364
s 8
f 64/63/332 60/76/330 68/88/365
f 68/88/365 60/76/330 66/85/366
s 3
f 54/66/310 55/65/309 69/89/367
f 69/89/367 55/65/309 70/90/368
s 4
f 55/65/314 56/72/313 70/90/369
f 70/90/369 56/72/313 71/91/370
s 5
f 56/72/318 53/71/317 71/91/371
f 71/91/371 53/71/317 72/92/372
s 16
f 53/71/373 54/66/374 72/92/375
f 72/92/375 54/66/374 69/89/376
s 6
f 65/86/361 67/87/362 73/78/377
f 73/78/377 67/87/362 75/80/378
s 2
f 67/87/363 68/88/364 75/80/379
f 75/80/379 68/88/364 76/79/380
s 8
f 68/88/365 66/85/366 76/79/381
f 76/79/381 66/85/366 74/77/382
s 3
f 69/89/367 70/90/368 77/81/383
f 77/81/383 70/90/368 78/82/384
s 4
f 70/90/369 71/91/370 78/82/385
f 78/82/385 71/91/370 79/84/386
s 5
f 71/91/371 72/92/372 79/84/387
f 79/84/387 72/92/372 80/83/388
s 17
f 66/85/389 65/86/390 69/89/391
f 69/89/391 65/86/390 72/92/392
s 18
f 65/86/393 73/78/394 72/92/395
f 72/92/395 73/78/394 80/83/396
s 19
f 73/78/397 74/77/398 80/83/399
f 80/83/399 74/77/398 77/81/400
s 20
f 74/77/401 66/85/402 77/81/403
f 77/81/403 66/85/402 69/89/404
