# This file uses centimeters as units for non-parametric coordinates.

g default
v -3.480312 -0.500000 0.500000
v -2.480312 -0.500000 0.500000
v -3.480312 4.500000 0.500000
v -2.480312 4.500000 0.500000
v -3.480312 4.500000 -0.500000
v -2.480312 4.500000 -0.500000
v -3.480312 -0.500000 -0.500000
v -2.480312 -0.500000 -0.500000
v -2.480312 3.500000 0.500000
v -3.480312 3.500000 0.500000
v -3.480312 3.500000 -0.500000
v -2.480312 3.500000 -0.500000
v -2.480312 2.500000 0.500000
v -3.480312 2.500000 0.500000
v -3.480312 2.500000 -0.500000
v -2.480312 2.500000 -0.500000
v -2.480312 1.080338 0.500000
v -3.480312 1.500000 0.500000
v -3.480312 1.500000 -0.500000
v -2.480312 1.080338 -0.500000
v -2.480312 0.500000 0.500000
v -3.480312 0.500000 0.500000
v -3.480312 0.500000 -0.500000
v -2.480312 0.500000 -0.500000
v -1.480312 3.500000 -0.500000
v -1.480312 3.500000 0.500000
v -1.480312 4.500000 -0.500000
v -1.480312 4.500000 0.500000
v -0.480312 3.500000 -0.500000
v -0.480312 3.500000 0.500000
v -0.480312 4.500000 -0.500000
v -0.480312 4.500000 0.500000
v -1.480312 2.500000 -0.500000
v -1.480312 2.500000 0.500000
v -0.480312 2.500000 -0.500000
v -0.480312 2.500000 0.500000
v -1.561737 1.500000 -0.500000
v -1.561737 1.500000 0.500000
v -0.480312 1.500000 -0.500000
v -0.480312 1.500000 0.500000
v -1.624145 -0.500000 -0.500000
v -1.624145 -0.500000 0.500000
v -0.435672 -0.500000 -0.500000
v -0.435672 -0.500000 0.500000
v 3.519688 -0.500000 0.500000
v 3.519688 0.500000 0.500000
v 3.519688 0.500000 -0.500000
v 3.519688 -0.500000 -0.500000
v 2.519688 0.500000 0.500000
v 2.519688 0.500000 -0.500000
v 2.519688 -0.500000 -0.500000
v 2.519688 -0.500000 0.500000
v 2.519688 1.500000 0.500000
v 3.519688 1.500000 0.500000
v 3.519688 1.500000 -0.500000
v 2.519688 1.500000 -0.500000
v 2.519688 2.500000 0.500000
v 3.519688 2.500000 0.500000
v 3.519688 2.500000 -0.500000
v 2.519688 2.500000 -0.500000
v 1.519688 1.500000 0.500000
v 1.519688 1.500000 -0.500000
v 1.519688 2.500000 0.500000
v 1.519688 2.500000 -0.500000
v 0.519688 1.500000 0.500000
v 0.519688 1.500000 -0.500000
v 0.519688 2.500000 0.500000
v 0.519688 2.500000 -0.500000
v 1.519688 3.500000 0.500000
v 1.519688 3.500000 -0.500000
v 0.519688 3.500000 -0.500000
v 0.519688 3.500000 0.500000
v 1.519688 4.500000 0.500000
v 1.519688 4.500000 -0.500000
v 0.519688 4.500000 -0.500000
v 0.519688 4.500000 0.500000
v 3.519688 3.500000 0.500000
v 3.519688 3.500000 -0.500000
v 3.519688 4.500000 -0.500000
v 3.519688 4.500000 0.500000
v 0.519688 0.500000 -0.500000
v 0.519688 -0.500000 -0.500000
v 0.519688 -0.500000 0.500000
v 0.519688 0.500000 0.500000
vt 0.375000 0.000000
vt 0.625000 0.000000
vt 0.375000 0.250000
vt 0.625000 0.250000
vt 0.375000 0.500000
vt 0.625000 0.500000
vt 0.375000 0.750000
vt 0.625000 0.750000
vt 0.375000 1.000000
vt 0.625000 1.000000
vt 0.875000 0.000000
vt 0.875000 0.250000
vt 0.125000 0.000000
vt 0.125000 0.250000
vt 0.625000 0.200000
vt 0.375000 0.200000
vt 0.125000 0.200000
vt 0.375000 0.550000
vt 0.625000 0.550000
vt 0.875000 0.200000
vt 0.625000 0.150000
vt 0.375000 0.150000
vt 0.125000 0.150000
vt 0.375000 0.600000
vt 0.625000 0.600000
vt 0.875000 0.150000
vt 0.625000 0.100000
vt 0.375000 0.100000
vt 0.125000 0.100000
vt 0.375000 0.650000
vt 0.625000 0.650000
vt 0.875000 0.100000
vt 0.625000 0.050000
vt 0.375000 0.050000
vt 0.125000 0.050000
vt 0.375000 0.700000
vt 0.625000 0.700000
vt 0.875000 0.050000
vt 0.625000 0.200000
vt 0.875000 0.200000
vt 0.875000 0.250000
vt 0.625000 0.250000
vt 0.625000 0.200000
vt 0.875000 0.200000
vt 0.875000 0.250000
vt 0.625000 0.250000
vt 0.625000 0.200000
vt 0.875000 0.200000
vt 0.875000 0.200000
vt 0.625000 0.200000
vt 0.625000 0.200000
vt 0.875000 0.200000
vt 0.875000 0.200000
vt 0.625000 0.200000
vt 0.625000 0.100000
vt 0.875000 0.100000
vt 0.875000 0.200000
vt 0.625000 0.200000
vt 0.625000 0.000000
vt 0.875000 0.000000
vt 0.625000 0.250000
vt 0.875000 0.250000
vt 0.541667 0.250000
vt 0.625000 0.250000
vt 0.541667 0.500000
vt 0.625000 0.500000
vt 0.541667 0.750000
vt 0.541667 0.500000
vt 0.625000 0.750000
vt 0.625000 0.500000
vt 0.541667 1.000000
vt 0.625000 1.000000
vt 0.541667 0.250000
vt 0.541667 0.000000
vt 0.541667 0.250000
vt 0.625000 0.250000
vt 0.625000 0.500000
vt 0.541667 0.500000
vt 0.541667 0.500000
vt 0.541667 0.250000
vt 0.541667 0.500000
vt 0.541667 0.250000
vt 0.541667 0.500000
vt 0.541667 0.250000
vt 0.541667 0.250000
vt 0.541667 0.500000
vt 0.541667 0.250000
vt 0.541667 0.500000
vt 0.541667 0.250000
vt 0.541667 0.500000
vt 0.541667 0.250000
vt 0.541667 0.500000
vt 0.541667 0.500000
vt 0.541667 0.250000
vt 0.541667 0.250000
vt 0.541667 0.500000
vt 0.541667 0.250000
vt 0.541667 0.500000
vt 0.541667 0.500000
vt 0.541667 0.750000
vt 0.541667 0.250000
vt 0.541667 0.000000
vn 0.000000 0.000000 1.000000
vn 0.000000 0.000000 1.000000
vn 0.000000 0.000000 1.000000
vn 0.000000 0.000000 1.000000
vn 0.000000 1.000000 0.000000
vn 0.000000 1.000000 0.000000
vn 0.000000 1.000000 0.000000
vn 0.000000 1.000000 0.000000
vn 0.000000 0.000000 -1.000000
vn 0.000000 0.000000 -1.000000
vn 0.000000 0.000000 -1.000000
vn 0.000000 0.000000 -1.000000
vn 0.000000 -1.000000 0.000000
vn 0.000000 -1.000000 0.000000
vn 0.000000 -1.000000 0.000000
vn 0.000000 -1.000000 0.000000
vn 1.000000 0.000000 0.000000
vn 1.000000 0.000000 0.000000
vn 1.000000 0.000000 0.000000
vn 1.000000 0.000000 0.000000
vn -1.000000 0.000000 0.000000
vn -1.000000 0.000000 0.000000
vn -1.000000 0.000000 0.000000
vn -1.000000 0.000000 0.000000
vn 0.000000 0.000000 1.000000
vn 0.000000 0.000000 1.000000
vn 0.000000 0.000000 1.000000
vn 0.000000 0.000000 1.000000
vn -1.000000 0.000000 0.000000
vn -1.000000 0.000000 0.000000
vn -1.000000 0.000000 0.000000
vn -1.000000 0.000000 0.000000
vn 0.000000 0.000000 -1.000000
vn 0.000000 0.000000 -1.000000
vn 0.000000 0.000000 -1.000000
vn 0.000000 0.000000 -1.000000
vn 1.000000 0.000000 0.000000
vn 1.000000 0.000000 0.000000
vn 1.000000 0.000000 0.000000
vn 1.000000 0.000000 0.000000
vn 0.000000 0.000000 1.000000
vn 0.000000 0.000000 1.000000
vn -1.000000 0.000000 0.000000
vn -1.000000 0.000000 0.000000
vn 0.000000 0.000000 -1.000000
vn 0.000000 0.000000 -1.000000
vn 1.000000 0.000000 0.000000
vn 1.000000 0.000000 0.000000
vn 1.000000 0.000000 0.000000
vn 1.000000 0.000000 0.000000
vn 0.000000 0.000000 1.000000
vn 0.000000 0.000000 1.000000
vn -1.000000 0.000000 0.000000
vn -1.000000 0.000000 0.000000
vn 0.000000 0.000000 -1.000000
vn 0.000000 0.000000 -1.000000
vn 1.000000 0.000000 0.000000
vn 1.000000 0.000000 0.000000
vn 0.000000 -1.000000 0.000000
vn 0.000000 -1.000000 0.000000
vn 0.000000 -1.000000 0.000000
vn 0.000000 -1.000000 0.000000
vn 0.000000 0.000000 -1.000000
vn 0.000000 0.000000 -1.000000
vn 0.000000 1.000000 0.000000
vn 0.000000 1.000000 0.000000
vn 0.000000 0.000000 1.000000
vn 0.000000 0.000000 1.000000
vn 0.000000 -1.000000 0.000000
vn 0.000000 -1.000000 0.000000
vn 0.000000 -1.000000 0.000000
vn 0.000000 -1.000000 0.000000
vn 0.000000 0.000000 -1.000000
vn 0.000000 0.000000 -1.000000
vn 0.000000 1.000000 0.000000
vn 0.000000 1.000000 0.000000
vn 0.000000 0.000000 1.000000
vn 0.000000 0.000000 1.000000
vn -1.000000 0.000000 0.000000
vn -1.000000 0.000000 0.000000
vn -1.000000 0.000000 0.000000
vn -1.000000 0.000000 0.000000
vn 0.000000 0.000000 -1.000000
vn 0.000000 0.000000 -1.000000
vn 1.000000 0.000000 0.000000
vn 1.000000 0.000000 0.000000
vn 0.000000 0.000000 1.000000
vn 0.000000 0.000000 1.000000
vn 0.000000 0.000000 -1.000000
vn 0.000000 0.000000 -1.000000
vn 1.000000 0.000000 0.000000
vn 1.000000 0.000000 0.000000
vn 0.000000 0.000000 1.000000
vn 0.000000 0.000000 1.000000
vn 0.000000 0.000000 -1.000000
vn 0.000000 0.000000 -1.000000
vn 0.000000 0.000000 -1.000000
vn 0.000000 0.000000 -1.000000
vn 0.000000 1.000000 0.000000
vn 0.000000 1.000000 0.000000
vn 0.000000 1.000000 0.000000
vn 0.000000 1.000000 0.000000
vn 0.000000 0.000000 1.000000
vn 0.000000 0.000000 1.000000
vn 0.000000 0.000000 1.000000
vn 0.000000 0.000000 1.000000
vn 0.000000 -1.000000 0.000000
vn 0.000000 -1.000000 0.000000
vn 0.000000 -1.000000 0.000000
vn 0.000000 -1.000000 0.000000
vn -0.879257 -0.476348 0.000000
vn -0.879257 -0.476348 0.000000
vn -0.879257 -0.476348 0.000000
vn -0.879257 -0.476348 0.000000
vn 0.000000 0.000000 -1.000000
vn 0.000000 0.000000 -1.000000
vn 0.871377 0.490614 0.000000
vn 0.871377 0.490614 0.000000
vn 0.871377 0.490614 0.000000
vn 0.871377 0.490614 0.000000
vn 0.000000 0.000000 1.000000
vn 0.000000 0.000000 1.000000
vn 1.000000 0.000000 0.000000
vn 1.000000 0.000000 0.000000
vn 1.000000 0.000000 0.000000
vn 1.000000 0.000000 0.000000
vn 1.000000 0.000000 0.000000
vn 1.000000 0.000000 0.000000
vn 0.000000 1.000000 0.000000
vn 0.000000 1.000000 0.000000
vn 0.000000 1.000000 0.000000
vn 0.000000 1.000000 0.000000
vn 0.000000 1.000000 0.000000
vn 0.000000 1.000000 0.000000
vn 0.000000 0.000000 -1.000000
vn 0.000000 0.000000 -1.000000
vn 0.000000 0.000000 -1.000000
vn 0.000000 0.000000 -1.000000
vn 0.000000 0.000000 -1.000000
vn 0.000000 0.000000 -1.000000
vn 0.000000 -1.000000 0.000000
vn 0.000000 -1.000000 0.000000
vn 0.000000 -1.000000 0.000000
vn 0.000000 -1.000000 0.000000
vn 0.000000 -1.000000 0.000000
vn 0.000000 -1.000000 0.000000
vn 0.000000 0.000000 1.000000
vn 0.000000 0.000000 1.000000
vn 0.000000 0.000000 1.000000
vn 0.000000 0.000000 1.000000
vn 0.000000 0.000000 1.000000
vn 0.000000 0.000000 1.000000
vn 0.000000 0.000000 1.000000
vn 0.000000 0.000000 1.000000
vn 0.000000 0.000000 1.000000
vn 0.000000 0.000000 1.000000
vn 0.000000 0.000000 1.000000
vn 0.000000 0.000000 1.000000
vn 1.000000 0.000000 0.000000
vn 1.000000 0.000000 0.000000
vn 1.000000 0.000000 0.000000
vn 1.000000 0.000000 0.000000
vn 1.000000 0.000000 0.000000
vn 1.000000 0.000000 0.000000
vn 0.000000 0.000000 -1.000000
vn 0.000000 0.000000 -1.000000
vn 0.000000 0.000000 -1.000000
vn 0.000000 0.000000 -1.000000
vn 0.000000 0.000000 -1.000000
vn 0.000000 0.000000 -1.000000
vn -1.000000 0.000000 0.000000
vn -1.000000 0.000000 0.000000
vn -1.000000 0.000000 0.000000
vn -1.000000 0.000000 0.000000
vn -1.000000 0.000000 0.000000
vn -1.000000 0.000000 0.000000
vn 0.000000 0.000000 1.000000
vn 0.000000 0.000000 1.000000
vn 0.000000 0.000000 1.000000
vn 0.000000 0.000000 1.000000
vn 0.000000 0.000000 1.000000
vn 0.000000 0.000000 1.000000
vn 1.000000 0.000000 0.000000
vn 1.000000 0.000000 0.000000
vn 1.000000 0.000000 0.000000
vn 1.000000 0.000000 0.000000
vn 1.000000 0.000000 0.000000
vn 1.000000 0.000000 0.000000
vn 0.000000 0.000000 -1.000000
vn 0.000000 0.000000 -1.000000
vn 0.000000 0.000000 -1.000000
vn 0.000000 0.000000 -1.000000
vn 0.000000 0.000000 -1.000000
vn 0.000000 0.000000 -1.000000
vn -1.000000 0.000000 0.000000
vn -1.000000 0.000000 0.000000
vn -1.000000 0.000000 0.000000
vn -1.000000 0.000000 0.000000
vn -1.000000 0.000000 0.000000
vn -1.000000 0.000000 0.000000
vn 0.000000 -1.000000 0.000000
vn 0.000000 -1.000000 0.000000
vn 0.000000 -1.000000 0.000000
vn 0.000000 -1.000000 0.000000
vn 0.000000 -1.000000 0.000000
vn 0.000000 -1.000000 0.000000
vn 0.000000 0.000000 1.000000
vn 0.000000 0.000000 1.000000
vn 0.000000 0.000000 1.000000
vn 0.000000 0.000000 1.000000
vn 0.000000 0.000000 1.000000
vn 0.000000 0.000000 1.000000
vn 0.000000 1.000000 0.000000
vn 0.000000 1.000000 0.000000
vn 0.000000 1.000000 0.000000
vn 0.000000 1.000000 0.000000
vn 0.000000 1.000000 0.000000
vn 0.000000 1.000000 0.000000
vn 0.000000 0.000000 -1.000000
vn 0.000000 0.000000 -1.000000
vn 0.000000 0.000000 -1.000000
vn 0.000000 0.000000 -1.000000
vn 0.000000 0.000000 -1.000000
vn 0.000000 0.000000 -1.000000
vn 0.000000 -1.000000 0.000000
vn 0.000000 -1.000000 0.000000
vn 0.000000 -1.000000 0.000000
vn 0.000000 -1.000000 0.000000
vn 0.000000 -1.000000 0.000000
vn 0.000000 -1.000000 0.000000
vn 0.000000 0.000000 1.000000
vn 0.000000 0.000000 1.000000
vn 0.000000 0.000000 1.000000
vn 0.000000 0.000000 1.000000
vn 0.000000 0.000000 1.000000
vn 0.000000 0.000000 1.000000
vn 0.000000 1.000000 0.000000
vn 0.000000 1.000000 0.000000
vn 0.000000 1.000000 0.000000
vn 0.000000 1.000000 0.000000
vn 0.000000 1.000000 0.000000
vn 0.000000 1.000000 0.000000
vn 0.000000 0.000000 -1.000000
vn 0.000000 0.000000 -1.000000
vn 0.000000 0.000000 -1.000000
vn 0.000000 0.000000 -1.000000
vn 0.000000 0.000000 -1.000000
vn 0.000000 0.000000 -1.000000
vn 1.000000 0.000000 0.000000
vn 1.000000 0.000000 0.000000
vn 1.000000 0.000000 0.000000
vn 1.000000 0.000000 0.000000
vn 1.000000 0.000000 0.000000
vn 1.000000 0.000000 0.000000
vn 0.000000 0.000000 -1.000000
vn 0.000000 0.000000 -1.000000
vn 0.000000 0.000000 -1.000000
vn 0.000000 0.000000 -1.000000
vn 0.000000 0.000000 -1.000000
vn 0.000000 0.000000 -1.000000
vn -1.000000 0.000000 0.000000
vn -1.000000 0.000000 0.000000
vn -1.000000 0.000000 0.000000
vn -1.000000 0.000000 0.000000
vn -1.000000 0.000000 0.000000
vn -1.000000 0.000000 0.000000
vn 0.000000 0.000000 1.000000
vn 0.000000 0.000000 1.000000
vn 0.000000 0.000000 1.000000
vn 0.000000 0.000000 1.000000
vn 0.000000 0.000000 1.000000
vn 0.000000 0.000000 1.000000
vn 1.000000 0.000000 0.000000
vn 1.000000 0.000000 0.000000
vn 1.000000 0.000000 0.000000
vn 1.000000 0.000000 0.000000
vn 1.000000 0.000000 0.000000
vn 1.000000 0.000000 0.000000
vn 0.000000 0.000000 -1.000000
vn 0.000000 0.000000 -1.000000
vn 0.000000 0.000000 -1.000000
vn 0.000000 0.000000 -1.000000
vn 0.000000 0.000000 -1.000000
vn 0.000000 0.000000 -1.000000
vn -1.000000 0.000000 0.000000
vn -1.000000 0.000000 0.000000
vn -1.000000 0.000000 0.000000
vn -1.000000 0.000000 0.000000
vn -1.000000 0.000000 0.000000
vn -1.000000 0.000000 0.000000
vn 0.000000 0.000000 1.000000
vn 0.000000 0.000000 1.000000
vn 0.000000 0.000000 1.000000
vn 0.000000 0.000000 1.000000
vn 0.000000 0.000000 1.000000
vn 0.000000 0.000000 1.000000
vn 0.000000 -1.000000 0.000000
vn 0.000000 -1.000000 0.000000
vn 0.000000 -1.000000 0.000000
vn 0.000000 -1.000000 0.000000
vn 0.000000 -1.000000 0.000000
vn 0.000000 -1.000000 0.000000
vn 0.000000 0.000000 -1.000000
vn 0.000000 0.000000 -1.000000
vn 0.000000 0.000000 -1.000000
vn 0.000000 0.000000 -1.000000
vn 0.000000 0.000000 -1.000000
vn 0.000000 0.000000 -1.000000
vn 0.000000 1.000000 0.000000
vn 0.000000 1.000000 0.000000
vn 0.000000 1.000000 0.000000
vn 0.000000 1.000000 0.000000
vn 0.000000 1.000000 0.000000
vn 0.000000 1.000000 0.000000
vn 0.000000 0.000000 1.000000
vn 0.000000 0.000000 1.000000
vn 0.000000 0.000000 1.000000
vn 0.000000 0.000000 1.000000
vn 0.000000 0.000000 1.000000
vn 0.000000 0.000000 1.000000
vn -1.000000 0.000000 0.000000
vn -1.000000 0.000000 0.000000
vn -1.000000 0.000000 0.000000
vn -1.000000 0.000000 0.000000
vn -1.000000 0.000000 0.000000
vn -1.000000 0.000000 0.000000
vn 0.000000 0.000000 -1.000000
vn 0.000000 0.000000 -1.000000
vn 0.000000 0.000000 -1.000000
vn 0.000000 0.000000 -1.000000
vn 0.000000 0.000000 -1.000000
vn 0.000000 0.000000 -1.000000
vn 0.000000 -1.000000 0.000000
vn 0.000000 -1.000000 0.000000
vn 0.000000 -1.000000 0.000000
vn 0.000000 -1.000000 0.000000
vn 0.000000 -1.000000 0.000000
vn 0.000000 -1.000000 0.000000
vn 0.000000 0.000000 1.000000
vn 0.000000 0.000000 1.000000
vn 0.000000 0.000000 1.000000
vn 0.000000 0.000000 1.000000
vn 0.000000 0.000000 1.000000
vn 0.000000 0.000000 1.000000
vn 0.000000 1.000000 0.000000
vn 0.000000 1.000000 0.000000
vn 0.000000 1.000000 0.000000
vn 0.000000 1.000000 0.000000
vn 0.000000 1.000000 0.000000
vn 0.000000 1.000000 0.000000
s 1
g pCube7
f 1/1/1 2/2/2 22/34/3
f 22/34/3 2/2/2 21/33/4
s 2
f 3/3/5 4/4/6 5/5/7
f 5/5/7 4/4/6 6/6/8
s 3
f 23/36/9 24/37/10 7/7/11
f 7/7/11 24/37/10 8/8/12
s 4
f 7/7/13 8/8/14 1/9/15
f 1/9/15 8/8/14 2/10/16
s 5
f 2/2/17 8/11/18 21/33/19
f 21/33/19 8/11/18 24/38/20
s 6
f 7/13/21 1/1/22 23/35/23
f 23/35/23 1/1/22 22/34/24
s 1
f 10/16/25 9/15/26 3/3/27
f 3/3/27 9/15/26 4/4/28
s 6
f 11/17/29 10/16/30 5/14/31
f 5/14/31 10/16/30 3/3/32
s 3
f 5/5/33 6/6/34 11/18/35
f 11/18/35 6/6/34 12/19/36
s 10
f 30/43/37 29/44/38 32/46/39
f 32/46/39 29/44/38 31/45/40
s 1
f 14/22/41 13/21/42 10/16/25
f 10/16/25 13/21/42 9/15/26
s 6
f 15/23/43 14/22/44 11/17/29
f 11/17/29 14/22/44 10/16/30
s 3
f 11/18/35 12/19/36 15/24/45
f 15/24/45 12/19/36 16/25/46
s 13
f 13/21/47 16/26/48 9/15/49
f 9/15/49 16/26/48 12/20/50
s 1
f 17/27/51 13/21/42 18/28/52
f 18/28/52 13/21/42 14/22/41
s 6
f 19/29/53 18/28/54 15/23/43
f 15/23/43 18/28/54 14/22/44
s 3
f 15/24/45 16/25/46 19/30/55
f 19/30/55 16/25/46 20/31/56
s 1
f 21/33/4 17/27/51 22/34/3
f 22/34/3 17/27/51 18/28/52
s 6
f 23/35/23 22/34/24 19/29/53
f 19/29/53 22/34/24 18/28/54
s 3
f 19/30/55 20/31/56 23/36/9
f 23/36/9 20/31/56 24/37/10
s 5
f 21/33/19 24/38/20 17/27/57
f 17/27/57 24/38/20 20/32/58
s 15
f 9/15/59 12/20/60 26/39/61
f 26/39/61 12/20/60 25/40/62
s 3
f 12/20/36 6/12/34 25/40/63
f 25/40/63 6/12/34 27/41/64
s 2
f 6/12/8 4/4/6 27/41/65
f 27/41/65 4/4/6 28/42/66
s 1
f 4/4/28 9/15/26 28/42/67
f 28/42/67 9/15/26 26/39/68
s 16
f 38/51/69 37/52/70 40/54/71
f 40/54/71 37/52/70 39/53/72
s 3
f 25/40/63 27/41/64 29/44/73
f 29/44/73 27/41/64 31/45/74
s 2
f 27/41/65 28/42/66 31/45/75
f 31/45/75 28/42/66 32/46/76
s 1
f 28/42/67 26/39/68 32/46/77
f 32/46/77 26/39/68 30/43/78
s 17
f 26/39/79 25/40/80 34/47/81
f 34/47/81 25/40/80 33/48/82
s 3
f 25/40/63 29/44/73 33/48/83
f 33/48/83 29/44/73 35/49/84
s 10
f 29/44/38 30/43/37 35/49/85
f 35/49/85 30/43/37 36/50/86
s 1
f 30/43/78 26/39/68 36/50/87
f 36/50/87 26/39/68 34/47/88
s 3
f 35/49/84 39/53/89 33/48/83
f 33/48/83 39/53/89 37/52/90
s 10
f 35/49/85 36/50/86 39/53/91
f 39/53/91 36/50/86 40/54/92
s 1
f 36/50/87 34/47/88 40/54/93
f 40/54/93 34/47/88 38/51/94
s 18
f 20/31/95 16/25/96 37/52/97
f 37/52/97 16/25/96 33/48/98
s 19
f 16/26/99 13/21/100 33/48/101
f 33/48/101 13/21/100 34/47/102
s 20
f 17/27/103 38/51/104 13/21/105
f 13/21/105 38/51/104 34/47/106
s 21
f 42/55/107 41/56/108 44/58/109
f 44/58/109 41/56/108 43/57/110
s 22
f 17/27/111 20/32/112 42/55/113
f 42/55/113 20/32/112 41/56/114
s 18
f 20/32/95 37/52/97 41/56/115
f 41/56/115 37/52/97 43/57/116
s 23
f 37/52/117 38/51/118 43/57/119
f 43/57/119 38/51/118 44/58/120
s 20
f 17/27/103 42/55/121 38/51/104
f 38/51/104 42/55/121 44/58/122
s off
f 45/59/123 48/60/124 46/61/125
f 46/61/126 48/60/127 47/62/128
f 57/63/129 58/64/130 60/65/131
f 60/65/132 58/64/133 59/66/134
f 51/67/135 50/68/136 48/69/137
f 48/69/138 50/68/139 47/70/140
f 52/71/141 51/67/142 45/72/143
f 45/72/144 51/67/145 48/69/146
f 49/73/147 52/74/148 46/61/149
f 46/61/150 52/74/151 45/59/152
f 49/73/153 46/61/154 53/75/155
f 53/75/156 46/61/157 54/76/158
f 46/61/159 47/70/160 54/76/161
f 54/76/162 47/70/163 55/77/164
f 47/70/165 50/68/166 55/77/167
f 55/77/168 50/68/169 56/78/170
f 50/68/171 49/73/172 56/78/173
f 56/78/174 49/73/175 53/75/176
f 53/75/177 54/76/178 57/63/179
f 57/63/180 54/76/181 58/64/182
f 54/76/183 55/77/184 58/64/185
f 58/64/186 55/77/187 59/66/188
f 55/77/189 56/78/190 59/66/191
f 59/66/192 56/78/193 60/65/194
f 66/79/195 65/80/196 68/81/197
f 68/81/198 65/80/199 67/82/200
f 56/78/201 53/75/202 62/83/203
f 62/83/204 53/75/205 61/84/206
f 53/75/207 57/63/208 61/84/209
f 61/84/210 57/63/211 63/85/212
f 57/63/213 60/65/214 63/85/215
f 63/85/216 60/65/217 64/86/218
f 60/65/219 56/78/220 64/86/221
f 64/86/222 56/78/223 62/83/224
f 62/83/225 61/84/226 66/79/227
f 66/79/228 61/84/229 65/80/230
f 61/84/231 63/85/232 65/80/233
f 65/80/234 63/85/235 67/82/236
f 73/87/237 74/88/238 76/89/239
f 76/89/240 74/88/241 75/90/242
f 64/86/243 62/83/244 68/81/245
f 68/81/246 62/83/247 66/79/248
f 63/85/249 64/86/250 69/91/251
f 69/91/252 64/86/253 70/92/254
f 64/86/255 68/81/256 70/92/257
f 70/92/258 68/81/259 71/93/260
f 68/81/261 67/82/262 71/93/263
f 71/93/264 67/82/265 72/94/266
f 67/82/267 63/85/268 72/94/269
f 72/94/270 63/85/271 69/91/272
f 77/95/273 78/96/274 80/97/275
f 80/97/276 78/96/277 79/98/278
f 70/92/279 71/93/280 74/88/281
f 74/88/282 71/93/283 75/90/284
f 71/93/285 72/94/286 75/90/287
f 75/90/288 72/94/289 76/89/290
f 72/94/291 69/91/292 76/89/293
f 76/89/294 69/91/295 73/87/296
f 69/91/297 70/92/298 77/95/299
f 77/95/300 70/92/301 78/96/302
f 70/92/303 74/88/304 78/96/305
f 78/96/306 74/88/307 79/98/308
f 74/88/309 73/87/310 79/98/311
f 79/98/312 73/87/313 80/97/314
f 73/87/315 69/91/316 80/97/317
f 80/97/318 69/91/319 77/95/320
f 81/99/321 82/100/322 84/101/323
f 84/101/324 82/100/325 83/102/326
f 50/68/327 51/67/328 81/99/329
f 81/99/330 51/67/331 82/100/332
f 51/67/333 52/74/334 82/100/335
f 82/100/336 52/74/337 83/102/338
f 52/74/339 49/73/340 83/102/341
f 83/102/342 49/73/343 84/101/344
f 49/73/345 50/68/346 84/101/347
f 84/101/348 50/68/349 81/99/350
